<?xml version="1.0" encoding="utf-8"?>
<!-- Generator: Adobe Illustrator 24.1.2, SVG Export Plug-In . SVG Version: 6.00 Build 0)  -->
<svg version="1.1" id="Capa_1" xmlns="http://www.w3.org/2000/svg" xmlns:xlink="http://www.w3.org/1999/xlink" x="0px" y="0px"
	 viewBox="0 0 512 512" style="enable-background:new 0 0 512 512;" xml:space="preserve">
<style type="text/css">
	.st0{fill:#FFFFFF;}
</style>
<g>
	<ellipse cx="256" cy="256" rx="236.3" ry="236.3"/>
	<path d="M256,512c-65.6,0-131.2-25-181.1-74.9C-25,337.3-25,174.8,74.9,74.9l0,0c99.8-99.8,262.4-99.8,362.2,0
		c99.8,99.9,99.8,262.3,0,362.2C387.2,487,321.6,512,256,512z M102.9,102.9c-84.4,84.4-84.4,221.7,0,306.1
		c84.4,84.4,221.7,84.4,306.1,0s84.4-221.7,0-306.1C324.6,18.6,187.3,18.6,102.9,102.9L102.9,102.9z"/>
</g>
<g>
	<path class="st0" d="M187.1,344.7c-5.1,0-10.2-1.9-14-5.8c-7.8-7.8-7.8-20.3,0-28.1l140.3-140.3c7.8-7.8,20.3-7.8,28.1,0
		s7.8,20.3,0,28.1L201.1,338.9C197.3,342.7,192.2,344.7,187.1,344.7z"/>
	<path class="st0" d="M327.4,344.7c-5.1,0-10.2-1.9-14-5.8L173.1,198.6c-7.8-7.8-7.8-20.3,0-28.1s20.3-7.8,28.1,0l140.3,140.3
		c7.8,7.8,7.8,20.3,0,28.1C337.5,342.7,332.4,344.7,327.4,344.7z"/>
</g>
</svg>
