<svg id="Capa_1" enable-background="new 0 0 511.288 511.288" height="512" viewBox="0 0 511.288 511.288" width="512" xmlns="http://www.w3.org/2000/svg"><g><path d="m255.644 398.686c-5.052 0-10.052-.22-15-.63v76.014c0 8.284 6.716 15 15 15s15-6.716 15-15v-76.014c-4.948.409-9.949.63-15 .63z"/><path d="m319.987 386.787 31.756 113.538c1.854 6.627 7.877 10.963 14.438 10.963 1.337 0 2.698-.181 4.049-.558 7.978-2.231 12.637-10.508 10.405-18.486l-33.219-118.77c-8.7 5.177-17.869 9.641-27.429 13.313z"/><path d="m163.872 373.474-33.219 118.769c-2.231 7.978 2.427 16.255 10.405 18.486 1.352.378 2.711.558 4.049.558 6.56 0 12.584-4.337 14.438-10.963l31.755-113.537c-9.56-3.672-18.729-8.136-27.428-13.313z"/><path d="m263.842 0c-6.376 0-11.809 3.985-13.98 9.595-.65 1.679-1.02 3.497-1.02 5.405 0 7.966-1.868 11.172-4.961 16.483-3.814 6.548-9.039 15.517-9.039 31.584s5.224 25.035 9.039 31.583c3.094 5.312 4.961 8.518 4.961 16.484 0 8.284 6.716 15 15 15s15-6.716 15-15c0-16.067-5.224-25.036-9.039-31.584-3.094-5.311-4.961-8.517-4.961-16.483s1.868-11.172 4.961-16.483c3.814-6.548 9.039-15.517 9.039-31.584 0-1.908-.37-3.726-1.02-5.405-2.171-5.61-7.604-9.595-13.98-9.595z"/><path d="m371.991 0c-6.376 0-11.809 3.985-13.98 9.595-.65 1.679-1.02 3.497-1.02 5.405 0 7.966-1.868 11.172-4.961 16.483-3.814 6.548-9.039 15.517-9.039 31.584s5.224 25.035 9.039 31.583c3.094 5.312 4.961 8.518 4.961 16.484 0 8.284 6.716 15 15 15s15-6.716 15-15c0-16.067-5.224-25.036-9.039-31.584-3.094-5.311-4.961-8.517-4.961-16.483s1.868-11.172 4.961-16.483c3.814-6.548 9.039-15.517 9.039-31.584 0-1.908-.37-3.726-1.02-5.405-2.171-5.61-7.604-9.595-13.98-9.595z"/><path d="m153.296 0c-6.376 0-11.809 3.985-13.98 9.595-.65 1.679-1.02 3.497-1.02 5.405 0 7.966-1.868 11.172-4.961 16.483-3.814 6.548-9.039 15.517-9.039 31.584s5.224 25.035 9.039 31.583c3.094 5.312 4.961 8.518 4.961 16.484 0 8.284 6.716 15 15 15s15-6.716 15-15c0-16.067-5.224-25.036-9.039-31.584-3.094-5.311-4.961-8.517-4.961-16.483s1.868-11.172 4.961-16.483c3.814-6.548 9.039-15.517 9.039-31.584 0-1.908-.37-3.726-1.02-5.405-2.171-5.61-7.604-9.595-13.98-9.595z"/><path d="m121.639 255.506c-3.983 0-7.879-.367-11.671-1.032 16.092 65.486 75.296 114.212 145.676 114.212s129.584-48.726 145.676-114.213c-3.792.665-7.688 1.032-11.671 1.032h-268.01z"/><path d="m121.639 225.506h268.009c20.124 0 36.496-15.966 36.496-35.591v-10.975c0-10.834-9.032-19.649-20.134-19.649h-300.732c-11.102 0-20.134 8.814-20.134 19.649v10.975c0 19.625 16.372 35.591 36.495 35.591z"/></g></svg>