<svg id="Layer_1" enable-background="new 0 0 512 512" height="512" viewBox="0 0 512 512" width="512" xmlns="http://www.w3.org/2000/svg"><g><circle cx="392.567" cy="440.767" r="15"/><circle cx="440.767" cy="392.567" r="15"/><path d="m497 321.333h-65.333v-306.333c0-8.284-6.716-15-15-15h-401.667c-8.284 0-15 6.716-15 15v401.667c0 8.284 6.716 15 15 15h306.333v65.333c0 8.284 6.716 15 15 15h160.667c8.284 0 15-6.716 15-15v-160.667c0-8.284-6.716-15-15-15zm-306.333-291.333h50.333v50.333h-50.333zm-80.334 0h50.334v50.333h-50.334zm-30 371.667h-50.333v-50.334h50.333zm0-80.334h-50.333v-50.333h50.333zm0-80.333h-50.333v-50.333h50.333zm0-80.333h-50.333v-50.334h50.333zm0-80.334h-50.333v-50.333h50.333zm80.334 321.334h-50.334v-50.334h50.334zm80.333 0h-50.333v-50.334h50.333zm80.333 0h-50.333v-50.334h50.333zm0-80.334h-211v-211h211zm0-241h-50.333v-50.333h50.333zm30-50.333h50.334v50.333h-50.334zm0 80.333h50.334v50.334h-50.334zm0 80.334h50.334v50.333h-50.334zm0 80.333h50.334v50.333h-50.334zm130.667 211h-130.667v-130.667h130.667z"/></g></svg>