<svg id="Capa_1" enable-background="new 0 0 512 512" height="512" viewBox="0 0 512 512" width="512" xmlns="http://www.w3.org/2000/svg"><g><path d="m306.907 290.855c.393-14.863-5.493-28.477-17.532-40.467-19.011-18.933-30.841-33.638-37.924-43.624-19.372 16.421-29.383 39.026-29.801 67.392-.132 8.923.707 17.232 1.874 24.333l32.476 13.452z"/><path d="m191.653 273.714c.649-44.083 20.077-79.085 56.184-101.221l14.544-8.917 6.845 15.266c.602 1.175 10.095 19.193 41.319 50.289 16.99 16.922 23.659 34.667 25.669 49.585l66.429-27.516c22.922-70.119-1.475-127.883-62.023-175.885-20.375-16.153-34.642-41.273-35.444-75.315 0 0-93.965 1.814-122.632 78.948l-25.84-14.897s-70.694 89.733-26.615 195.736l61.829 25.611c-.222-3.771-.324-7.677-.265-11.684z"/><path d="m101.09 0h30v30h-30z"/><path d="m381.09 0h30v30h-30z"/><path d="m411.09 60h30v30h-30z"/><path d="m442.984 266.962-147.787 61.215 108.803 45.068 70.852-29.348z"/><path d="m69.016 512 147.787-61.215-108.803-45.068-70.852 29.347z"/><path d="m214.363 169.844h83.275v439.273h-83.275z" transform="matrix(.383 -.924 .924 .383 -201.8 476.946)"/></g></svg>