<?xml version="1.0" encoding="utf-8"?>
<!-- Generator: Adobe Illustrator 24.1.2, SVG Export Plug-In . SVG Version: 6.00 Build 0)  -->
<svg version="1.1" id="Capa_1" xmlns="http://www.w3.org/2000/svg" xmlns:xlink="http://www.w3.org/1999/xlink" x="0px" y="0px"
	 viewBox="0 0 297 297" style="enable-background:new 0 0 297 297;" xml:space="preserve">
<style type="text/css">
	.st0{display:none;fill:none;stroke:#000000;stroke-width:4;stroke-miterlimit:10;}
</style>
<g>
	<path d="M289.9,17.9H7.1C3.2,17.9,0,21.1,0,25v58.6c0,3.6,2.7,6.6,6.2,7l283.7,0.1c3.9,0,7.1-3.2,7.1-7.1V25
		C297,21.1,293.8,17.9,289.9,17.9z M59.2,59.3c-1.3,1.3-3.2,2.1-5,2.1s-3.7-0.8-5-2.1c-1.3-1.3-2.1-3.2-2.1-5c0-1.9,0.8-3.7,2.1-5
		c1.3-1.3,3.2-2.1,5-2.1s3.7,0.8,5,2.1c1.3,1.3,2.1,3.2,2.1,5C61.3,56.2,60.6,58,59.2,59.3z M106.4,59.3c-1.3,1.3-3.2,2.1-5,2.1
		s-3.7-0.8-5-2.1c-1.3-1.3-2.1-3.2-2.1-5c0-1.9,0.8-3.7,2.1-5c1.3-1.3,3.2-2.1,5-2.1c1.9,0,3.7,0.8,5,2.1c1.3,1.3,2.1,3.2,2.1,5
		C108.5,56.2,107.7,58,106.4,59.3z M153.5,59.3c-1.3,1.3-3.2,2.1-5,2.1s-3.7-0.8-5-2.1c-1.3-1.3-2.1-3.2-2.1-5c0-1.9,0.8-3.7,2.1-5
		c1.3-1.3,3.2-2.1,5-2.1c1.9,0,3.7,0.8,5,2.1c1.3,1.3,2.1,3.2,2.1,5C155.6,56.2,154.8,58,153.5,59.3z M200.6,59.3
		c-1.3,1.3-3.1,2.1-5,2.1c-1.9,0-3.7-0.8-5-2.1c-1.3-1.3-2.1-3.2-2.1-5c0-1.9,0.8-3.7,2.1-5c1.3-1.3,3.2-2.1,5-2.1
		c1.9,0,3.7,0.8,5,2.1c1.3,1.3,2.1,3.2,2.1,5C202.7,56.2,202,58,200.6,59.3z M247.8,59.3c-1.3,1.3-3.1,2.1-5,2.1
		c-1.9,0-3.7-0.8-5-2.1c-1.3-1.3-2.1-3.2-2.1-5c0-1.9,0.8-3.7,2.1-5c1.3-1.3,3.1-2.1,5-2.1c1.9,0,3.7,0.8,5,2.1
		c1.3,1.3,2.1,3.2,2.1,5C249.9,56.2,249.1,58,247.8,59.3z"/>
	<path class="st0" d="M148.5,133.8c-36.9,0-66.9,30-66.9,66.9v78.4h16c-2.5-5-3.9-11-3.9-17.4c0-15.4,17.8-50.6,19.8-54.6
		c1.2-2.4,3.7-3.9,6.3-3.9c0,0,0,0,0,0c2.7,0,5.1,1.5,6.3,3.9c0.1,0.2,1.7,3.2,3.8,7.8c5.9-13.8,11.8-25.5,12.2-26.1
		c1.2-2.4,3.7-3.9,6.3-3.9s5.1,1.5,6.3,3.9c0.3,0.7,6.3,12.3,12.2,26.1c2.2-4.6,3.7-7.6,3.8-7.8c1.2-2.4,3.7-3.9,6.3-3.9h0
		c2.7,0,5.1,1.5,6.3,3.9c2,4,19.8,39.2,19.8,54.6c0,6.4-1.4,12.4-3.9,17.4h16v-78.4C215.4,163.8,185.4,133.8,148.5,133.8z"/>
	<path d="M177.1,227.2c-1.4,3.2-4.6,5.3-8.1,5.2c-3.5-0.1-6.6-2.3-7.8-5.6c-4.1-11.3-9.4-23.4-13.7-32.8
		c-4.3,9.3-9.7,21.5-13.7,32.8c-1.2,3.3-4.3,5.6-7.8,5.6c-3.5,0-6.7-2-8.1-5.2c-1.6-3.8-3.3-7.6-4.8-11c-7.1,15.8-14.3,34.1-14.3,42
		c0,9.4,4,17.7,9.4,20.9h78.6c5.4-3.2,9.4-11.5,9.4-20.9c0-8-7.1-26.3-14.3-42C180.4,219.6,178.7,223.3,177.1,227.2z"/>
	<path d="M23,272c0,3.9,3.2,7.1,7.1,7.1h37.3v-78.4c0-44.7,36.4-81.1,81.1-81.1s81.1,36.4,81.1,81.1v78.4h37.3
		c3.9,0,7.1-3.2,7.1-7.1V104.8H23V272z"/>
</g>
</svg>
