<?xml version="1.0" encoding="utf-8"?>
<!-- Generator: Adobe Illustrator 24.1.2, SVG Export Plug-In . SVG Version: 6.00 Build 0)  -->
<svg version="1.1" id="Layer_1" xmlns="http://www.w3.org/2000/svg" xmlns:xlink="http://www.w3.org/1999/xlink" x="0px" y="0px"
	 viewBox="0 0 512 512" style="enable-background:new 0 0 512 512;" xml:space="preserve">
<g id="solid">
	<path d="M392.2,29h-81.7v72.6h81.7V29z M337.7,74.4c0,5-4.1,9.1-9.1,9.1c-5,0-9.1-4.1-9.1-9.1V56.2c0-5,4.1-9.1,9.1-9.1
		c5,0,9.1,4.1,9.1,9.1V74.4z"/>
	<path d="M410.4,29v72.6h99.9V29H410.4z M446.7,74.4c0,5-4.1,9.1-9.1,9.1s-9.1-4.1-9.1-9.1V56.2c0-5,4.1-9.1,9.1-9.1
		s9.1,4.1,9.1,9.1V74.4z"/>
	<path d="M310.5,119.8h199.8v9.1H310.5V119.8z"/>
	<path d="M235.6,265.1c6.3,0,11.3-5.1,11.3-11.3v-6.8h27.2c5,0,9.1-4.1,9.1-9.1s-4.1-9.1-9.1-9.1h-81.7v25c0,6.3,5.1,11.3,11.3,11.3
		H235.6z"/>
	<path d="M38.1,410.4h109v36.3h-109V410.4z"/>
	<path d="M328.6,355.9H201.5v90.8h127.1V355.9z M283.2,392.2h-36.3c-5,0-9.1-4.1-9.1-9.1s4.1-9.1,9.1-9.1h36.3c5,0,9.1,4.1,9.1,9.1
		S288.3,392.2,283.2,392.2z"/>
	<path d="M328.6,301.4v-18.2h-36.3v18.2h-54.5v-18.2h-36.3v54.5h127.1V301.4z M228.8,328.6c-5,0-9.1-4.1-9.1-9.1s4.1-9.1,9.1-9.1
		s9.1,4.1,9.1,9.1S233.8,328.6,228.8,328.6z M265.1,328.6c-5,0-9.1-4.1-9.1-9.1s4.1-9.1,9.1-9.1s9.1,4.1,9.1,9.1
		S270.1,328.6,265.1,328.6z M301.4,328.6c-5,0-9.1-4.1-9.1-9.1s4.1-9.1,9.1-9.1s9.1,4.1,9.1,9.1S306.4,328.6,301.4,328.6z"/>
	<path d="M383.1,473.9c0,5,4.1,9.1,9.1,9.1h109c5,0,9.1-4.1,9.1-9.1V319.6H383.1V473.9z M401.3,346.8c0-5,4.1-9.1,9.1-9.1
		c5,0,9.1,4.1,9.1,9.1V365c0,5-4.1,9.1-9.1,9.1c-5,0-9.1-4.1-9.1-9.1V346.8z"/>
	<path d="M501.2,228.8h-109c-5,0-9.1,4.1-9.1,9.1v63.6h127.1v-63.6C510.2,232.8,506.2,228.8,501.2,228.8z M419.4,274.2
		c0,5-4.1,9.1-9.1,9.1c-5,0-9.1-4.1-9.1-9.1V256c0-5,4.1-9.1,9.1-9.1c5,0,9.1,4.1,9.1,9.1V274.2z"/>
	<path d="M38.1,337.7h109v18.2h-109V337.7z"/>
	<path d="M346.8,455.8c0,5-4.1,9.1-9.1,9.1H192.4c-5,0-9.1-4.1-9.1-9.1V301.4H138v-36.3h9.1c5,0,9.1-4.1,9.1-9.1s-4.1-9.1-9.1-9.1
		H138v-9.1c0-15-12.2-27.2-27.2-27.2s-27.2,12.2-27.2,27.2V256c0,5,4.1,9.1,9.1,9.1c5,0,9.1-4.1,9.1-9.1v-18.2c0-5,4.1-9.1,9.1-9.1
		c5,0,9.1,4.1,9.1,9.1v63.6H29v-18.2c0-5-4.1-9.1-9.1-9.1s-9.1,4.1-9.1,9.1v18.2H1.8V483H365V301.4h-18.2V455.8z M165.2,455.8
		c0,5-4.1,9.1-9.1,9.1H29c-5,0-9.1-4.1-9.1-9.1v-54.5c0-5,4.1-9.1,9.1-9.1h127.1c5,0,9.1,4.1,9.1,9.1V455.8z M165.2,365
		c0,5-4.1,9.1-9.1,9.1H29c-5,0-9.1-4.1-9.1-9.1v-36.3c0-5,4.1-9.1,9.1-9.1h127.1c5,0,9.1,4.1,9.1,9.1V365z"/>
	<path d="M74.4,119.8h-3.5l-18.2,36.3h61.4L96,119.8h-3.5V47.2h118v72.6h-3.5L189,156.1h61.4l-18.2-36.3h-3.5V47.2h63.6V29H1.8v18.2
		h72.6V119.8z"/>
</g>
</svg>
