<svg id="Layer_1" enable-background="new 0 0 511.988 511.988" height="512" viewBox="0 0 511.988 511.988" width="512" xmlns="http://www.w3.org/2000/svg"><g><path d="m261.982 46.029c-4.475 2.632-10.085 3.067-15.097.839-6.132-2.726-12.647-4.108-19.364-4.108s-13.232 1.382-19.365 4.108c-4.829 2.147-10.452 1.893-15.097-.839-3.355 5.829-5.283 12.582-5.283 19.79 0 21.95 17.794 39.745 39.744 39.745s39.744-17.794 39.744-39.745c.001-7.208-1.927-13.961-5.282-19.79z"/><path d="m287.913 245.138h-27.24v37.291c0 12.486-10.122 22.608-22.608 22.608h-20.738c-12.486 0-22.608-10.122-22.608-22.608v-37.291h-27.591l-15.021 86.676c7.107 3.723 12.534 10.225 14.83 18.057h9.591v139.105c0 12.71 10.303 23.012 23.012 23.012s23.012-10.303 23.012-23.012v-139.106h9.935v139.105c0 12.71 10.303 23.012 23.012 23.012s23.012-10.303 23.012-23.012v-139.105h14.89c3.146 0 6.131-1.39 8.155-3.798s2.879-5.587 2.342-8.687z"/><path d="m197.581 33.897c1.078 2.037 3.548 2.841 5.656 1.904 7.727-3.435 16.006-5.153 24.284-5.153s16.557 1.718 24.284 5.153c2.107.936 4.577.135 5.656-1.904 3.433-6.484 6.866-12.967 10.298-19.45 1.153-2.179.272-4.904-1.961-5.947-12.127-5.667-25.202-8.5-38.277-8.5s-26.151 2.833-38.277 8.499c-2.233 1.044-3.115 3.769-1.961 5.947 3.432 6.484 6.865 12.967 10.298 19.451z"/><path d="m241.417 114.075c-7.818 8.844-21.712 8.844-29.53 0-.651-.737-1.679-1.015-2.618-.723l-12.1 3.763c-1.57.488-2.263 2.324-1.406 3.727l8.729 14.301c3.522 5.77 11.073 7.561 16.811 3.987l5.349-3.331 5.349 3.331c5.738 3.574 13.289 1.783 16.811-3.987l8.729-14.301c.857-1.404.165-3.239-1.406-3.727l-12.1-3.763c-.939-.292-1.967-.014-2.618.723z"/><circle cx="227.196" cy="151.973" r="4.972"/><circle cx="227.196" cy="171.15" r="4.972"/><path d="m415.965 478.367c-1.533-6.881-7.638-11.775-14.688-11.775h-26.984v-217.248c9.961-.57 17.933-8.739 18.066-18.869.136-10.301-7.882-18.788-18.066-19.373v-54.271c0-5.375-4.056-10.069-9.42-10.417-5.878-.381-10.766 4.274-10.766 10.071v54.308l-31.305-.413c-5.336-14.947-13.995-39.266-17.719-50.102-6.672-19.415-16.729-31.652-29.998-36.56-1.4 26.142-22.157 61.774-47.565 61.774s-46.165-35.631-47.565-61.773c-13.268 4.908-23.325 17.145-29.998 36.559-13.788 40.125-45.102 125.794-45.416 126.655-3.207 8.771.397 18.362 8.112 23.003v30.597h-5.476c-9.784 0-17.716 7.932-17.716 17.716v26.346c0 4.008 3.249 7.257 7.257 7.257h52.055c4.008 0 7.257-3.249 7.257-7.257v-26.346c0-9.784-7.932-17.716-17.716-17.716h-5.476c0-10.901 0-19.9 0-30.846 3.438-2.184 6.217-5.463 7.724-9.583.237-.649 18.007-49.267 32.739-90.596l-4.076 23.519h116.587l-4.108-23.703c4.862 13.659 9.125 25.563 9.469 26.523 2.7 7.536 9.796 12.603 17.801 12.708l45.131.595v217.443h-26.984c-7.05 0-13.155 4.894-14.688 11.775l-6.47 29.034c-.512 2.3 1.237 4.482 3.593 4.482h59.945c2.033 0 3.681-1.648 3.681-3.681v-18.964l3.852 19.672c.338 1.728 1.852 2.974 3.613 2.974h6.83c2.033 0 3.681-1.648 3.681-3.681v-22.359l5.915 23.266c.415 1.632 1.884 2.774 3.568 2.774h18.198c2.356 0 4.106-2.182 3.593-4.482z"/></g></svg>