<?xml version="1.0" encoding="utf-8"?>
<!-- Generator: Adobe Illustrator 24.1.2, SVG Export Plug-In . SVG Version: 6.00 Build 0)  -->
<svg version="1.1" id="Layer_1" xmlns="http://www.w3.org/2000/svg" xmlns:xlink="http://www.w3.org/1999/xlink" x="0px" y="0px"
	 viewBox="0 0 19.7 22.1" style="enable-background:new 0 0 19.7 22.1;" xml:space="preserve">
<g id="Group_1" transform="translate(0 0)">
	<g id="_02-spoon_fork" transform="translate(0 0)">
		<g id="Glyph">
			<path id="Path_2000" d="M3.4,9.1c0.2,0,0.4,0.1,0.6,0.1c0.4,0,0.8-0.1,1.2-0.2l1.7,3l1.2-1.6L6.8,8.1c0.5-0.4,0.8-0.9,1.1-1.5
				c0.3-1,0.2-2.2-0.4-3.1c-0.6-1.1-1.5-2-2.6-2.6C3.9,0.1,2.6,0,1.4,0.5c-2,1.1-1.6,4.7-0.5,6.7C1.4,8.2,2.3,8.9,3.4,9.1z"/>
			<path id="Path_2001" d="M8.9,15.5l3.7,6.6l1.6-0.9l-4.1-7.3L8.9,15.5z"/>
			<path id="Path_2002" d="M19.7,4.6l-1.5-1.1l-2.3,3l-0.7-0.6l2.3-3L16,1.7l-2.3,3L13,4.1l2.3-3L13.8,0l-3.4,4.4
				c-1,1.3-1,3.2,0,4.6L1.1,20.9L2.6,22l9.2-11.9c1.6,0.7,3.4,0.2,4.4-1.1l0.6-0.7L19.7,4.6z"/>
		</g>
	</g>
</g>
</svg>
