<?xml version="1.0" encoding="utf-8"?>
<!-- Generator: Adobe Illustrator 24.1.2, SVG Export Plug-In . SVG Version: 6.00 Build 0)  -->
<svg version="1.1" id="Layer_1" xmlns="http://www.w3.org/2000/svg" xmlns:xlink="http://www.w3.org/1999/xlink" x="0px" y="0px"
	 viewBox="0 0 512 512" style="enable-background:new 0 0 512 512;" xml:space="preserve">
<path d="M89.7,352.6l20.8-12.2c9.2-5.4,20.7-5.4,29.9,0.2l19.4,11.7c9.4,5.6,19.9,8.5,30.5,8.5c10.3,0,20.7-2.7,29.9-8.1l20.8-12.2
	c9.2-5.4,20.7-5.4,29.9,0.2l19.4,11.7c18.6,11.2,41.7,11.3,60.4,0.3l20.8-12.2c9.2-5.4,20.7-5.4,29.9,0.2l19.4,11.7
	c18.6,11.2,41.7,11.3,60.4,0.3l20.8-12.2l-15.2-25.9L466,326.8c-9.2,5.4-20.6,5.3-29.8-0.2l-19.4-11.7c-15.7-9.4-34.6-11-51.4-4.7
	V80.7c0-27.9,22.7-50.7,50.7-50.7h25.4V0h-25.4c-44.5,0-80.7,36.2-80.7,80.7v24.5H209.6V80.7c0-27.9,22.7-50.7,50.7-50.7h25.4V0
	h-25.4c-44.5,0-80.7,36.2-80.7,80.7v248c-1.5-0.6-2.9-1.3-4.3-2.1l-19.4-11.7c-18.6-11.2-41.8-11.3-60.5-0.3l-20.8,12.2
	c-9.2,5.4-20.6,5.3-29.8-0.2L25.5,315L10,340.7l19.3,11.6C47.9,363.5,71,363.6,89.7,352.6z M305.8,326.6l-19.4-11.7
	c-18.6-11.2-41.8-11.3-60.5-0.3l-16.3,9.5v-81.6h125.8v84.3C326.2,332.2,314.9,332.1,305.8,326.6z M335.4,135.2v77.3H209.6v-77.3
	H335.4z"/>
<path d="M89.7,428.2l20.8-12.2c9.2-5.4,20.7-5.4,29.9,0.2l19.4,11.7c18.6,11.2,41.7,11.3,60.4,0.3L241,416
	c9.2-5.4,20.7-5.4,29.9,0.2l19.4,11.7c18.6,11.2,41.7,11.3,60.4,0.3l20.8-12.2c9.2-5.4,20.7-5.4,29.9,0.2l19.4,11.7
	c9.4,5.6,19.9,8.5,30.5,8.5c10.3,0,20.7-2.7,29.9-8.1l20.8-12.2l-15.2-25.9L466,402.4c-9.2,5.4-20.6,5.3-29.8-0.2l-19.4-11.7
	c-18.6-11.2-41.8-11.3-60.5-0.3l-20.8,12.2c-9.2,5.4-20.6,5.3-29.8-0.2l-19.4-11.7c-18.6-11.2-41.8-11.3-60.5-0.3L205,402.4
	c-9.2,5.4-20.6,5.3-29.8-0.2l-19.4-11.7c-18.6-11.2-41.8-11.3-60.5-0.3l-20.8,12.2c-9.2,5.4-20.6,5.3-29.8-0.2l-19.3-11.6L10,416.3
	l19.3,11.6C47.9,439.1,71,439.2,89.7,428.2z"/>
<path d="M466.1,478c-9.2,5.4-20.6,5.3-29.8-0.2l-19.4-11.7c-18.6-11.2-41.8-11.3-60.5-0.3L335.6,478c-9.2,5.4-20.6,5.3-29.8-0.2
	l-19.4-11.7c-18.6-11.2-41.8-11.3-60.5-0.3L205.1,478c-9.2,5.4-20.6,5.3-29.8-0.2l-19.4-11.7c-18.6-11.2-41.8-11.3-60.5-0.3
	L74.6,478c-9.2,5.4-20.6,5.3-29.8-0.2l-19.3-11.6L10,491.9l19.3,11.6c18.6,11.2,41.7,11.3,60.4,0.3l20.8-12.2
	c9.2-5.4,20.7-5.4,29.9,0.2l19.4,11.7c18.6,11.2,41.7,11.3,60.4,0.3l20.8-12.2c9.2-5.4,20.7-5.4,29.9,0.2l19.4,11.7
	c18.6,11.2,41.7,11.3,60.4,0.3l20.8-12.2c9.2-5.4,20.7-5.4,29.9,0.2l19.4,11.7c9.4,5.6,19.9,8.5,30.5,8.5c10.3,0,20.7-2.7,29.9-8.1
	l20.8-12.2l-15.2-25.9L466.1,478z"/>
</svg>
