<?xml version="1.0" encoding="utf-8"?>
<!-- Generator: Adobe Illustrator 24.1.2, SVG Export Plug-In . SVG Version: 6.00 Build 0)  -->
<svg version="1.1" id="light" xmlns="http://www.w3.org/2000/svg" xmlns:xlink="http://www.w3.org/1999/xlink" x="0px" y="0px"
	 viewBox="0 0 512 512" style="enable-background:new 0 0 512 512;" xml:space="preserve">
<path d="M501.3,192H394.7c-5.9,0-10.7-4.8-10.7-10.7s4.8-10.7,10.7-10.7h96v-96c0-5.9,4.8-10.7,10.7-10.7S512,68.8,512,74.7v106.7
	C512,187.2,507.2,192,501.3,192z"/>
<path d="M10.7,448C4.8,448,0,443.2,0,437.3V330.7c0-5.9,4.8-10.7,10.7-10.7h106.7c5.9,0,10.7,4.8,10.7,10.7s-4.8,10.7-10.7,10.7h-96
	v96C21.3,443.2,16.6,448,10.7,448z"/>
<path d="M12.8,234.7c-0.4,0-0.9,0-1.4-0.1c-5.8-0.8-10-6.1-9.2-12C18.6,95.7,127.7,0,256,0c115.1,0,222.6,74.9,255.5,178.1
	c1.8,5.6-1.3,11.6-6.9,13.4c-5.7,1.8-11.6-1.3-13.4-6.9C461,90,362.1,21.3,256,21.3c-117.6,0-217.6,87.7-232.6,204
	C22.7,230.7,18.1,234.7,12.8,234.7L12.8,234.7z"/>
<path d="M256,512C140.7,512,33.2,437.1,0.5,333.9c-1.8-5.6,1.3-11.6,6.9-13.4c5.7-1.8,11.6,1.3,13.4,7
	C50.8,422,149.7,490.7,256,490.7c117.6,0,217.6-87.7,232.6-204c0.8-5.8,5.9-9.9,12-9.2c5.8,0.8,10,6.1,9.2,12
	C493.4,416.3,384.3,512,256,512L256,512z"/>
<g id="XMLID_1_">
	<g>
		<path d="M332.2,234.6l-90,136.6L255.9,268c0.4-3-0.6-6.1-2.6-8.4c-2-2.3-4.9-3.6-8-3.6h-64l89-118.7l-14.1,84.9
			c-0.5,3.1,0.4,6.2,2.4,8.6c2,2.4,5,3.8,8.1,3.8H332.2z"/>
		<path d="M361.4,218.9c1.9,3.5,1.7,7.7-0.5,10.9l-126.4,192c-2.1,3.1-5.4,4.9-8.9,4.9c-1.3,0-2.5-0.2-3.7-0.7
			c-4.7-1.7-7.5-6.5-6.8-11.4l18.2-137.3H160c-4,0-7.7-2.3-9.5-5.9s-1.4-7.9,1-11.2l128-170.7c3-4,8.2-5.3,12.7-3.4
			s7.1,6.7,6.3,11.6l-19.3,115.6H352C355.9,213.3,359.5,215.5,361.4,218.9z M242.2,371.2l90-136.6h-65.5c-3.1,0-6.1-1.4-8.1-3.8
			c-2-2.4-2.9-5.5-2.4-8.6l14.1-84.9l-89,118.7h64c3.1,0,6,1.3,8,3.6c2,2.3,3,5.4,2.6,8.4L242.2,371.2z"/>
	</g>
	<g>
	</g>
</g>
</svg>
