<?xml version="1.0" encoding="utf-8"?>
<!-- Generator: Adobe Illustrator 24.1.2, SVG Export Plug-In . SVG Version: 6.00 Build 0)  -->
<svg version="1.1" id="Layer_1" xmlns="http://www.w3.org/2000/svg" xmlns:xlink="http://www.w3.org/1999/xlink" x="0px" y="0px"
	 viewBox="0 0 512 512" style="enable-background:new 0 0 512 512;" xml:space="preserve">
<g id="hand-Food-hotel_service-room_service-hotel">
	<circle cx="256.5" cy="19.4" r="17.8"/>
	<path d="M7,277.8v17.8c0,4.9,4,8.9,8.9,8.9h481.2c4.9,0,8.9-4,8.9-8.9v-17.8H7z"/>
	<path d="M256.5,46.2C137,46.3,38.9,140.6,34,260h445C474.1,140.6,376,46.3,256.5,46.2z"/>
	<path d="M394.6,465H194.1v-17.8h84.7c12.3,0,22.3-10,22.3-22.3c0-12.3-10-22.3-22.3-22.3h-57.9c-0.8,0-1.6-0.1-2.3-0.4L122.4,376
		l-44.1,7.4v102.4l55.3,23.7h261c12.3,0,22.3-10,22.3-22.3C416.9,474.9,406.9,465,394.6,465L394.6,465z"/>
	<path d="M7,509.5h53.5V366.9H7V509.5z M33.7,375.9c9.8,0,17.8,8,17.8,17.8c0,9.8-8,17.8-17.8,17.8s-17.8-8-17.8-17.8
		C15.9,383.8,23.9,375.9,33.7,375.9z"/>
</g>
</svg>
