<?xml version="1.0" encoding="utf-8"?>
<!-- Generator: Adobe Illustrator 24.1.2, SVG Export Plug-In . SVG Version: 6.00 Build 0)  -->
<svg version="1.1" id="Layer_1" xmlns="http://www.w3.org/2000/svg" xmlns:xlink="http://www.w3.org/1999/xlink" x="0px" y="0px"
	 viewBox="0 0 300 500" style="enable-background:new 0 0 300 500;" xml:space="preserve">
<style type="text/css">
	.st0{fill:#FFFFFF;}
	.st1{clip-path:url(#SVGID_2_);}
	.st2{opacity:0.16;fill:#FF6B6C;enable-background:new    ;}
	.st3{fill:#365E83;}
	.st4{font-family:'OpenSans-Light';}
	.st5{font-size:17.4859px;}
	.st6{font-family:'OpenSans-Bold';}
	.st7{font-size:19.9839px;}
	.st8{fill:#FF6B6C;}
	.st9{fill:#B0F0FF;}
	.st10{fill:#434749;}
	.st11{fill:#333638;}
	.st12{fill:#56636B;}
	.st13{font-family:'OpenSans';}
	.st14{font-size:6.3389px;}
	.st15{fill:#FFB27F;}
	.st16{fill:#E89567;}
	.st17{fill:none;stroke:#C67C58;stroke-miterlimit:10;}
	.st18{fill:#45B1EA;}
	.st19{font-family:'Montserrat-Regular';}
	.st20{font-size:6.1373px;}
	.st21{fill:#DADDE0;}
	.st22{fill:#F2F3F4;}
	.st23{fill:#3D7299;}
	.st24{fill:#BBE2FF;}
	.st25{fill:#96C5E2;}
	.st26{fill:#A3CAE2;}
	.st27{fill:#72E2FF;}
	.st28{fill:#C1C6C9;}
	.st29{fill:#E1F4FF;}
	.st30{fill:#6A3C18;}
	.st31{fill:#3C1D01;}
	.st32{fill:#E5E5E3;}
	.st33{fill:#843842;}
	.st34{fill:#231C17;}
	.st35{fill:#493639;}
	.st36{clip-path:url(#SVGID_4_);}
	.st37{fill:#FEB686;}
	.st38{fill:none;stroke:#DB8F65;stroke-width:2;stroke-linecap:round;stroke-miterlimit:10;}
	.st39{fill:#A4EEFF;}
	.st40{opacity:0.52;}
	.st41{fill:#74C4D1;}
	.st42{fill:#AF764F;}
	.st43{fill:#1E2B30;}
	.st44{fill:#ED9F74;}
	.st45{fill:#49020E;}
	.st46{fill:#21120A;}
</style>
<g transform="translate(-1352 -916)">
	<path class="st0" d="M1353,910.2h299v717h-299V910.2z"/>
	<g transform="translate(1286 974.9)">
		<g transform="translate(66 -56.761)">
			<g>
				<defs>
					<rect id="SVGID_1_" x="-3.9" y="-6.3" width="306.6" height="339.9"/>
				</defs>
				<clipPath id="SVGID_2_">
					<use xlink:href="#SVGID_1_"  style="overflow:visible;"/>
				</clipPath>
				<g transform="translate(0 -0.139)" class="st1">
					<g transform="translate(-52.781 -59.543)">
						<path class="st2" d="M155.6,307.6c4.9-1.6,8.1-6.5,8.2-11.9l0.5-0.2c3.1,8.6,9.2,15.9,17.1,20.6c-3.6-0.5-7.1,1.5-8.6,4.8
							c-2.3,4.6-0.7,10.3,3.4,12.8s9.3,0.8,11.6-3.8c1.8-3.6,1.3-8-1.3-11.1l0.2-0.3c7.2,2.8,15,3,22.3,0.7l1.9,5.8
							c-4,3.6-5.4,9.2-3.7,14.3c2.2,6.5,8.7,9.8,14.6,7.4c5.9-2.4,8.9-9.7,6.7-16.2c-1.8-5.3-6.4-8.5-11.2-8.2l-2-5.8
							c5.2-2.9,9.7-7,13-11.9c1,2.4,2.8,4.4,5.1,5.6c5.4,2.7,11.7,0.1,14.1-5.8c2.5-5.9,0.1-12.9-5.2-15.7c-2.2-1.1-4.7-1.4-7.1-0.7
							c1.3-6.8,1.1-13.8-0.8-20.5c1-0.1,1.9-0.5,2.8-1c4.2-2.4,5.8-8.1,3.7-12.7c-2.2-4.7-7.3-6.5-11.5-4.1c-1.1,0.6-2,1.4-2.7,2.4
							c-4.7-6-11.1-10.4-18.4-12.6c4.6-0.6,8.6-4.2,9.8-9.5c1.5-6.7-2.2-13.6-8.3-15.2c-6.1-1.6-12.2,2.5-13.7,9.2
							c-1.2,5.5,1,11,5.2,13.8l-0.1,0.4c-5.2-0.4-10.5,0.5-15.4,2.5c-0.9,0.4-1.8,0.8-2.7,1.3c-0.2-1.5-0.7-2.9-1.4-4.2
							c-3.1-5.6-9.6-7.4-14.6-4c-5,3.4-6.6,10.7-3.6,16.2c1.2,2.2,3,3.9,5.3,4.9c-6.4,9.9-8.7,21.9-6.4,33.4l-0.4,0.1
							c-2.7-4.5-7.7-6.7-12.6-5.1c-6,1.9-9.5,8.9-7.7,15.6C143.2,305.8,149.5,309.6,155.6,307.6z"/>
						<path class="st2" d="M101.4,122.8c-5.1-0.4-9.6,3-11.3,7.9l-12.7-1c-0.3-6.2-2.6-12.1-6.5-16.9l8.6-8.3
							c3.1,2.2,7.4,1.8,10.1-0.9c3.6-3.6,3.9-9.3,0.9-13.3c-2.6-3.5-7.6-4.3-11.1-1.7c-0.3,0.2-0.6,0.5-0.9,0.8
							c-2.8,2.9-3.7,7.2-2.2,10.9l-9,8.7c-3.4-2.8-7.5-4.7-11.9-5.3V85.2c4.6-1.6,7.9-6.3,7.9-12c0-6.9-5.1-12.5-11.3-12.5
							s-11.3,5.6-11.3,12.5c0,5.6,3.3,10.4,7.9,12v18.4c-4.6,0.7-8.8,2.7-12.3,5.7l-4.8-5.3c2.2-4.6,1.4-10-1.9-13.8
							c-3.6-4.1-9.8-4.6-14-1.1c-0.4,0.3-0.7,0.7-1.1,1.1c-4.2,4.8-4.2,11.9,0,16.7c3.1,3.6,8.3,4.5,12.5,2.1l4.8,5.3
							c-3.5,5.1-5.4,11.2-5.4,17.4c0,0.9,0,1.8,0.1,2.7l-5.4,0.7c-1.5-3.7-5-6-8.8-5.5c-4.7,0.6-8,5.3-7.4,10.5s4.8,8.9,9.5,8.3
							c3.8-0.5,6.7-3.7,7.4-7.7l5.7-0.8c1.6,6.2,5.4,11.7,10.5,15.5l-6.6,10.8c-4.6-1.5-9.8,0.3-12.6,5c-3.5,5.7-2.1,13.5,3,17.4
							c5.2,3.9,12.2,2.4,15.7-3.4c2.8-4.6,2.6-10.4-0.5-14.9l7.2-11.7c2.5,0.9,5.1,1.3,7.7,1.3c2.6,0,5.2-0.4,7.6-1.3l1.2,6.7
							c-4,2.4-6.3,7.4-5.4,12.6c1.1,6.4,6.7,10.6,12.4,9.3c5.8-1.2,9.5-7.4,8.4-13.8c-0.9-5.2-4.7-8.9-9.2-9.5l-1.5-8.4
							c6.1-4.4,10.3-11.1,11.5-18.5l12.6,1c1.1,5.2,5.1,9.2,10.2,9.6c6.2,0.5,11.6-4.7,12.1-11.6
							C112.3,129.3,107.6,123.3,101.4,122.8z"/>
						<path class="st2" d="M52.9,421.9c3.2-4.4,3.4-10.2,0.7-14.8l8.1-10.9c4.7,3.3,10.5,4.7,16.2,4l1.1,12.6
							c-3.6,1.8-5.6,5.6-5.2,9.6c0.4,5.2,4.6,9,9.3,8.5c4.7-0.5,8.1-5.1,7.7-10.3c-0.2-3.9-2.9-7.3-6.7-8.3l-1.1-13.2
							c4.2-1.5,8-4.2,10.8-7.6l13.5,10.7c-1.6,5.1,0.1,10.7,4.2,14.1c5.1,4,12.1,2.7,15.8-3c3.6-5.6,2.4-13.5-2.7-17.5
							c-3.9-3.2-9.6-3.1-13.4,0.2l-13.5-10.7c2.1-4.5,3.1-9.5,2.9-14.4l6.6-1.2c2,4.5,6.5,7.2,11.2,6.3c5.8-1.1,9.7-7.2,8.7-13.6
							c-1-6.4-6.5-10.7-12.2-9.7c-4.7,0.9-8.2,5.1-8.8,10l-6.6,1.2c-1.5-5.9-4.9-11.1-9.6-14.9c-0.7-0.5-1.4-1-2.1-1.5l2.6-5.2
							c3.8,0.7,7.6-1.2,9.1-4.7c2.2-4.6,0.7-10.3-3.4-12.8c-4.1-2.5-9.3-0.8-11.5,3.8c-1.8,3.6-1.3,8,1.4,11.1l-2.8,5.6
							c-5.7-2.1-12-1.9-17.5,0.5l-4.1-12.2c4-3.6,5.4-9.2,3.7-14.3c-2.2-6.5-8.7-9.8-14.5-7.4c-5.9,2.4-8.8,9.6-6.6,16.1
							c1.8,5.3,6.4,8.4,11.2,8.1l4.5,13.3c-2.1,1.8-4,3.9-5.5,6.2c-1.5,2.4-2.7,4.9-3.5,7.6l-5.6-2.8c0.6-5-1.8-10-6.1-12.2
							c-5.3-2.7-11.6-0.1-14.1,5.8c-2.4,5.9-0.1,12.9,5.3,15.6c4.3,2.1,9.4,0.9,12.3-2.9l7,3.5c-0.5,7.7,2,15.2,6.9,21.1l-8,10.8
							c-4.6-2.1-10.1-0.5-13,3.6c-4,5.3-3.3,13.2,1.5,17.7C41.8,428,48.9,427.2,52.9,421.9z"/>
						<path class="st2" d="M363.4,354.7c-3.1-0.1-5.9,1.8-6.8,4.8l-0.3,0c-0.2-5.7-2.2-11.1-5.7-15.5c1.9,1.1,4.2,0.8,5.8-0.7
							c2.1-2.2,2.4-5.6,0.5-8c-1.6-2.1-4.5-2.6-6.7-1c-0.2,0.1-0.4,0.3-0.5,0.5c-1.7,1.7-2.2,4.3-1.3,6.6l-0.2,0.1
							c-3.4-3.2-7.8-5.1-12.4-5.5v-3.7c3-1.1,4.9-4,4.8-7.2c0-4.2-3-7.5-6.8-7.5c-3.8,0-6.8,3.4-6.8,7.5c-0.1,3.2,1.8,6,4.8,7.2v3.7
							c-3.4,0.4-6.7,1.7-9.6,3.6c-0.1-1.6-0.8-3.1-1.8-4.3c-2.1-2.5-5.9-2.8-8.4-0.6c-0.2,0.2-0.4,0.4-0.6,0.6
							c-2.5,2.9-2.5,7.1,0,10c1,1.1,2.4,1.9,3.9,2c-2,3.6-3.2,7.6-3.4,11.7c-0.6-0.1-1.2-0.2-1.7-0.1c-2.8,0.4-4.8,3.2-4.5,6.3
							c0.3,3.1,2.9,5.3,5.7,5c0.7-0.1,1.4-0.3,2-0.7c1.5,4.5,4.3,8.4,8,11.4c-2.8-0.7-5.8,0.5-7.3,3.1c-2.1,3.5-1.3,7.9,1.8,10.5
							c2.8,2.1,6.8,1.6,8.9-1.3c0.2-0.2,0.3-0.5,0.5-0.8c1.7-2.8,1.5-6.3-0.3-8.9l0.1-0.2c2.8,1.4,5.9,2.1,9.1,2.1
							c0.6,0,1.2,0,1.8-0.1c-0.2,0.9-0.2,1.8,0,2.7c0.7,3.8,4,6.4,7.5,5.6s5.7-4.5,5.1-8.3c-0.2-1.5-1-2.9-2.1-4
							c5.5-4.2,9.1-10.4,9.9-17.3l0.2,0c0.5,3.1,3,5.4,6.1,5.8c3.7,0.3,7-2.8,7.3-7C370,358.6,367.2,355,363.4,354.7z"/>
						<path class="st2" d="M304.9,152.3c4.9-1.6,8.1-6.5,8.2-11.9l0.5-0.2c3.1,8.6,9.2,15.9,17.1,20.6c-3.6-0.5-7.1,1.5-8.6,4.8
							c-2.3,4.6-0.7,10.3,3.4,12.8c4.1,2.5,9.3,0.8,11.6-3.8c1.8-3.6,1.3-8-1.3-11.1l0.2-0.3c7.2,2.8,15,3,22.3,0.7l1.9,5.8
							c-4,3.6-5.4,9.2-3.7,14.3c2.2,6.5,8.7,9.8,14.6,7.4c5.9-2.4,8.9-9.7,6.7-16.2c-1.8-5.3-6.4-8.5-11.2-8.2l-2-5.8
							c5.2-2.9,9.7-7,13-11.9c1,2.4,2.8,4.4,5.1,5.6c5.4,2.7,11.7,0.1,14.1-5.8c2.5-5.9,0.1-12.9-5.2-15.7c-2.2-1.1-4.7-1.4-7.1-0.7
							c1.3-6.8,1.1-13.8-0.8-20.5c1-0.1,1.9-0.5,2.8-1c4.2-2.4,5.8-8.1,3.7-12.7s-7.3-6.5-11.5-4.1c-1.1,0.6-2,1.4-2.7,2.4
							c-4.7-6-11.1-10.4-18.4-12.6c4.6-0.6,8.6-4.2,9.8-9.5c1.5-6.7-2.2-13.6-8.3-15.2c-6.1-1.6-12.2,2.5-13.7,9.2
							c-1.2,5.5,1,11,5.2,13.8l-0.1,0.4c-5.2-0.4-10.5,0.5-15.4,2.5c-0.9,0.4-1.8,0.8-2.7,1.3c-0.2-1.5-0.7-2.9-1.4-4.2
							c-3.1-5.6-9.6-7.4-14.6-4c-5,3.4-6.6,10.7-3.6,16.2c1.2,2.2,3.1,3.9,5.3,4.9c-6.4,9.9-8.7,21.9-6.4,33.4l-0.4,0.1
							c-2.7-4.5-7.7-6.7-12.6-5.1c-6,1.9-9.5,8.9-7.7,15.6C292.6,150.4,298.9,154.2,304.9,152.3z"/>
					</g>
				</g>
			</g>
		</g>
		<text transform="matrix(1 0 0 1 152.8135 -35.4377)" class="st3 st4 st5">CORONAVIRUS</text>
		<text transform="matrix(1 0 0 1 148 -16.7034)" class="st3 st6 st7">PREVENTION</text>
		<text transform="matrix(1 0 0 1 159.1572 2.032)" class="st3 st6 st7">PRACTICES</text>
		<g transform="translate(-37 -15)">
			<g transform="translate(-0.451)">
				<circle class="st8" cx="170.1" cy="74.3" r="28.2"/>
				<path class="st0" d="M179.8,51.4h-19.4c-10.5,16.9,0,44.9,0,44.9h19.4C179.8,96.2,190.3,68.3,179.8,51.4z"/>
				<path class="st9" d="M157.4,68.8c-0.5,12.5,4.1,24.9,4.1,24.9h17.2c0,0,4.6-12.3,4.1-24.9H157.4z"/>
				<rect x="163.6" y="48.1" class="st10" width="13" height="3.3"/>
				<rect x="166.9" y="45.7" class="st11" width="6.4" height="2.4"/>
				<rect x="165.6" y="39.8" class="st12" width="9.1" height="5.9"/>
				<rect x="159" y="41.1" class="st11" width="6.7" height="1.6"/>
				<rect x="169.3" y="51.4" class="st11" width="1.6" height="40.3"/>
			</g>
			<text transform="matrix(1 0 0 1 155.3018 112.9993)" class="st3 st13 st14">USE SOAP</text>
		</g>
		<g transform="translate(39.234 -15)">
			<g transform="translate(6)">
				<circle class="st8" cx="246.8" cy="74.2" r="28.2"/>
				<path class="st15" d="M236,73.3l6,4.1c2.3,1.6,6.1-1.2,11,2.2s4.6-1,3.6-1.7l-8.4-5.8c-3-2-6.7-1.5-9.2-3.1L236,73.3z"/>
				<path class="st16" d="M256.6,89.8l-8.4,8.4c-1.6,1.6-3,1.5-3.6,0.8s-0.7-1.9,0.8-3.6c1.5-1.7,8.4-8.4,8.4-8.4L256.6,89.8z"/>
				<path class="st16" d="M252.6,88.1l-8.4,8.4c-1.6,1.6-3,1.5-3.6,0.8s-0.7-1.9,0.8-3.6c1.5-1.7,8.4-8.4,8.4-8.4L252.6,88.1z"/>
				<path class="st16" d="M249,85.9l-8.4,8.4c-1.6,1.6-3,1.5-3.6,0.8s-0.7-1.9,0.8-3.6c1.5-1.7,8.4-8.4,8.4-8.4L249,85.9z"/>
				<path class="st16" d="M246.9,82.3l-8.4,8.4c-1.6,1.6-3,1.5-3.6,0.8s-0.7-1.9,0.8-3.6c1.5-1.7,8.4-8.4,8.4-8.4L246.9,82.3z"/>
				<path class="st16" d="M255.2,91.1c3.2-3.2,3.2-3.3,4.7-4.7s2.2-5,3.6-6.5l2.5-2.5l-10-10l-7.1,7.1c-2.9,2.9-8.1,8.1-10.3,10.3
					C236.5,87,255.2,91.1,255.2,91.1z"/>
				<line class="st17" x1="238.5" y1="90.7" x2="245.6" y2="83.6"/>
				<line class="st17" x1="241.4" y1="93.6" x2="248.5" y2="86.4"/>
				<line class="st17" x1="245.4" y1="95.2" x2="251.4" y2="89.2"/>
				<path class="st15" d="M236.9,89.2l8.4,8.4c1.6,1.6,3,1.5,3.6,0.8s0.7-1.9-0.8-3.6c-1.5-1.7-8.4-8.4-8.4-8.4L236.9,89.2z"/>
				<path class="st15" d="M240.9,87.5l8.4,8.4c1.6,1.6,3,1.5,3.6,0.8c0.7-0.7,0.7-1.9-0.8-3.6c-1.5-1.7-8.4-8.4-8.4-8.4L240.9,87.5z
					"/>
				<path class="st15" d="M244.5,85.3l8.4,8.4c1.6,1.6,3,1.5,3.6,0.8c0.7-0.7,0.7-1.9-0.8-3.6c-1.5-1.7-8.4-8.4-8.4-8.4L244.5,85.3z
					"/>
				<path class="st15" d="M246.6,81.8l8.4,8.4c1.6,1.6,3,1.5,3.6,0.8c0.7-0.7,0.7-1.9-0.8-3.6c-1.5-1.7-8.4-8.4-8.4-8.4L246.6,81.8z
					"/>
				<path class="st15" d="M238.3,90.6c-3.2-3.2-3.2-3.3-4.7-4.7c-1.5-1.4-2.2-5-3.6-6.5l-2.5-2.5l10-10c0,0,4.2,4.2,7.1,7.1
					l10.3,10.3C257,86.4,238.3,90.6,238.3,90.6z"/>
				<line class="st17" x1="255" y1="90.1" x2="247.9" y2="83"/>
				<line class="st17" x1="252.2" y1="93" x2="245" y2="85.9"/>
				<line class="st17" x1="248.1" y1="94.7" x2="242.1" y2="88.7"/>
				
					<rect x="216.8" y="52.3" transform="matrix(0.7071 -0.7071 0.7071 0.7071 20.7384 177.569)" class="st3" width="15.8" height="23"/>
				<path class="st16" d="M259.1,71.7l-6,4.1c-2.3,1.6-6.1-1.2-11,2.2s-4.6-1-3.6-1.7l8.4-5.8c3-2,6.7-1.5,9.2-3.1L259.1,71.7z"/>
				
					<rect x="257.3" y="56.4" transform="matrix(0.7071 -0.7071 0.7071 0.7071 33.2638 208.918)" class="st3" width="23" height="15.8"/>
				<path class="st16" d="M245.2,95.6c-1.5,1.7-1.5,2.9-0.8,3.6c0.7,0.7,2.1,0.8,3.6-0.8l1.2-1.2c0.8-0.8,0.8-2.1,0-2.8l0,0
					c-0.8-0.8-2.1-0.8-2.8,0c0,0,0,0,0,0C245.8,94.9,245.3,95.5,245.2,95.6z"/>
				<path class="st16" d="M241.2,93.8c-1.5,1.7-1.5,2.9-0.8,3.6s2.1,0.8,3.6-0.8l2.3-2.3c0.8-0.8,0.8-2.1,0-2.8c0,0,0,0,0,0l0,0
					c-0.8-0.8-2.1-0.8-2.8,0c0,0,0,0,0,0C242.5,92.5,241.5,93.6,241.2,93.8z"/>
				<path class="st16" d="M237.6,91.6c-1.5,1.7-1.5,2.9-0.8,3.6c0.7,0.7,2.1,0.8,3.6-0.8l3-3c0.8-0.8,0.8-2.1,0-2.8c0,0,0,0,0,0l0,0
					c-0.8-0.8-2.1-0.8-2.8,0c0,0,0,0,0,0C239.4,89.8,238,91.2,237.6,91.6z"/>
				<path class="st16" d="M235.3,88c-1.5,1.7-1.5,2.9-0.8,3.6c0.7,0.7,2.1,0.8,3.6-0.8l2.3-2.3c0.8-0.8,0.8-2.1,0-2.8l0,0
					c-0.8-0.8-2.1-0.8-2.8,0c0,0,0,0,0,0C236.7,86.6,235.6,87.7,235.3,88z"/>
				
					<rect x="237.5" y="57.1" transform="matrix(0.7071 -0.7071 0.7071 0.7071 30.9962 191.5845)" class="st18" width="18.5" height="2.5"/>
				
					<rect x="245.5" y="49.1" transform="matrix(0.7071 -0.7071 0.7071 0.7071 30.9952 191.5843)" class="st18" width="2.5" height="18.5"/>
			</g>
			<text transform="matrix(1 0 0 1 218.9271 112.9983)" class="st3 st13 st14">CONTACTLESS SERVICE</text>
		</g>
		<g transform="translate(74 138)">
			<text transform="matrix(1 0 0 1 36.2041 56.9841)" class="st3 st19 st20">WASH HANDS</text>
			<circle class="st8" cx="58.7" cy="18.2" r="28.2"/>
			<path class="st16" d="M39.7,25.6l6.5-2.7c2.5-1,2.3-5.5,7.6-7.7s1.6-4.3,0.5-3.9l-9.2,3.8c-3.2,1.3-4.7,4.7-7.4,5.8L39.7,25.6z"
				/>
			<path class="st16" d="M55.7,33.2L67,30.9c2.1-0.4,2.8-1.6,2.6-2.5c-0.2-0.9-1.2-1.6-3.4-1.3s-11.3,2.3-11.3,2.3L55.7,33.2z"/>
			<path class="st16" d="M56.4,29.1l11.3-2.3c2.1-0.4,2.8-1.6,2.6-2.5c-0.2-0.9-1.2-1.6-3.4-1.3s-11.2,2.3-11.2,2.3L56.4,29.1z"/>
			<path class="st16" d="M56.6,25l11.2-2.3c2.1-0.4,2.8-1.6,2.6-2.5c-0.2-0.9-1.2-1.6-3.4-1.3c-2.2,0.3-11.3,2.3-11.3,2.3L56.6,25z"
				/>
			<path class="st16" d="M54.8,21.4L66.1,19c2.1-0.4,2.8-1.6,2.6-2.5c-0.2-0.9-1.2-1.6-3.4-1.3c-2.2,0.3-11.2,2.3-11.2,2.3
				L54.8,21.4z"/>
			<path class="st16" d="M57.5,32.8c-4.2,0.9-4.4,0.8-6.3,1.3c-1.9,0.5-5.2-0.9-7.2-0.5l-3.4,0.7l-2.8-13.4l9.6-2l13.8-2.9
				C64.1,15.4,57.5,32.8,57.5,32.8z"/>
			<line class="st17" x1="66.1" y1="19" x2="56.5" y2="21"/>
			<line class="st17" x1="66.9" y1="22.9" x2="57.3" y2="24.9"/>
			<line class="st17" x1="66.1" y1="27.1" x2="58" y2="28.7"/>
			
				<rect x="27.3" y="20.9" transform="matrix(0.9792 -0.203 0.203 0.9792 -5.1004 7.3842)" class="st3" width="12.3" height="15.3"/>
			<rect x="58.1" y="5.6" class="st21" width="9.3" height="3.5"/>
			<path class="st22" d="M62.5-2.8h0.4c3.4,0,6.2,2.8,6.2,6.2l0,0v2.2l0,0H56.3l0,0V3.4C56.3,0,59.1-2.8,62.5-2.8
				C62.5-2.8,62.5-2.8,62.5-2.8z"/>
			<path class="st0" d="M62.6,10.1L62.6,10.1c0.2,0,0.4,0.2,0.4,0.4v7.6c0,0.2-0.2,0.4-0.4,0.4h0c-0.2,0-0.4-0.2-0.4-0.4v-7.6
				C62.3,10.3,62.4,10.1,62.6,10.1z"/>
			<path class="st0" d="M66.7,10.1L66.7,10.1c0.2,0,0.4,0.2,0.4,0.4v7.6c0,0.2-0.2,0.4-0.4,0.4h0c-0.2,0-0.4-0.2-0.4-0.4v-7.6
				C66.4,10.3,66.5,10.1,66.7,10.1z"/>
			<path class="st0" d="M58.5,10.1L58.5,10.1c0.2,0,0.4,0.2,0.4,0.4v7.6c0,0.2-0.2,0.4-0.4,0.4h0c-0.2,0-0.4-0.2-0.4-0.4v-7.6
				C58.2,10.3,58.3,10.1,58.5,10.1z"/>
			<path class="st0" d="M62.8,20.4L62.8,20.4c0.2,0,0.4,0.2,0.4,0.4v3.4c0,0.2-0.2,0.4-0.4,0.4h0c-0.2,0-0.4-0.2-0.4-0.4v-3.4
				C62.4,20.5,62.6,20.4,62.8,20.4z"/>
			<path class="st0" d="M66.9,20.4L66.9,20.4c0.2,0,0.4,0.2,0.4,0.4v3.4c0,0.2-0.2,0.4-0.4,0.4h0c-0.2,0-0.4-0.2-0.4-0.4v-3.4
				C66.5,20.5,66.7,20.4,66.9,20.4z"/>
			<path class="st0" d="M58.7,20.4L58.7,20.4c0.2,0,0.4,0.2,0.4,0.4v3.4c0,0.2-0.2,0.4-0.4,0.4h0c-0.2,0-0.4-0.2-0.4-0.4v-3.4
				C58.3,20.5,58.5,20.4,58.7,20.4z"/>
			<path class="st15" d="M40.8,28.8l6.9-1.5c2.7-0.6,3.2-5.1,8.8-6.3s2.3-4,1.2-3.7L48,19.4c-3.4,0.8-5.5,3.8-8.3,4.4L40.8,28.8z"/>
			<path class="st15" d="M55.3,39l11.5-0.4c2.2-0.1,3.1-1.1,3-2c-0.1-0.9-0.9-1.8-3.1-1.8c-2.2-0.1-11.5,0.4-11.5,0.4L55.3,39z"/>
			<path class="st15" d="M56.7,35.1l11.5-0.4c2.2-0.1,3.1-1.1,3-2c-0.1-0.9-0.9-1.8-3.1-1.8c-2.2-0.1-11.5,0.4-11.5,0.4L56.7,35.1z"
				/>
			<path class="st15" d="M57.5,31.1L69,30.7c2.2-0.1,3.1-1.1,3-2c-0.1-0.9-0.9-1.8-3.1-1.8c-2.2-0.1-11.5,0.4-11.5,0.4L57.5,31.1z"
				/>
			<path class="st15" d="M56.4,27.2l11.5-0.4c2.2-0.1,3.1-1.1,3-2S70,23,67.8,23c-2.2-0.1-11.5,0.4-11.5,0.4L56.4,27.2z"/>
			<path class="st15" d="M57.1,39c-4.3,0.1-4.5,0.1-6.5,0.2c-2,0.1-5-1.8-7-1.7l-3.5,0.1l-0.5-13.7l9.8-0.3L63.5,23
				C66.6,22.9,57.1,39,57.1,39z"/>
			<line class="st17" x1="67.9" y1="26.8" x2="58.1" y2="27.2"/>
			<line class="st17" x1="68" y1="30.7" x2="58.3" y2="31.1"/>
			<line class="st17" x1="66.5" y1="34.7" x2="58.3" y2="35"/>
			
				<rect x="27.9" y="23" transform="matrix(0.9994 -3.334706e-02 3.334706e-02 0.9994 -1.0027 1.1542)" class="st23" width="12.3" height="15.3"/>
		</g>
		<g transform="translate(-70 138)">
			<text transform="matrix(1 0 0 1 331.6025 56.9841)" class="st3 st13 st14">USE DISINFECTANT</text>
			<circle class="st8" cx="361.8" cy="18.2" r="28.2"/>
			<path class="st3" d="M348.4,12.7c-0.5,7.4-0.3,14.9,0.6,22.3c0.5,4.1,3.9,7.1,8,7.1h10.8c4.1,0,7.5-3.1,8-7.1
				c0.9-7.4,1.1-14.9,0.6-22.3c-0.2-3.2-2.9-5.6-6.1-5.6h-15.9C351.3,7.1,348.6,9.5,348.4,12.7z"/>
			<rect x="355.6" y="2.4" class="st24" width="13.6" height="4.6"/>
			<rect x="359.5" y="-3" class="st25" width="5.8" height="5.4"/>
			<path class="st26" d="M346.5,4.1c9.1,0,11.3-6.8,11.3-6.8l-3.4-0.6c0,0-2.2,5.3-7.9,6.2L346.5,4.1z"/>
			<path class="st24" d="M351.7-6.3c5.6-2.3,13.2-0.5,17.4,1.2c2.1,0.8,3.3,3,2.9,5.2l0,0l-20.3-3.8V-6.3z"/>
			<path class="st27" d="M350.2-3.8l-15,5v-12.8l15,5.4V-3.8z"/>
			<circle class="st0" cx="362.4" cy="26.8" r="8.8"/>
			<path class="st28" d="M357,25.3h10.7c0.1,0,0.2,0.1,0.2,0.2v0c0,0.1-0.1,0.2-0.2,0.2H357c-0.1,0-0.2-0.1-0.2-0.2v0
				C356.8,25.4,356.9,25.3,357,25.3z"/>
			<path class="st28" d="M357,27.9h10.7c0.1,0,0.2,0.1,0.2,0.2v0c0,0.1-0.1,0.2-0.2,0.2H357c-0.1,0-0.2-0.1-0.2-0.2v0
				C356.8,28,356.9,27.9,357,27.9z"/>
			<rect x="350.7" y="-6.9" class="st29" width="1" height="3.7"/>
		</g>
		<g transform="translate(-40 143)">
			<text transform="matrix(1 0 0 1 306.2725 147.656)" class="st3 st13 st14">KEEP DISTANCE</text>
			<path class="st8" d="M332.9,75.9c16.8,0,30.5,13.7,30.5,30.5s-13.7,30.5-30.5,30.5s-30.5-13.7-30.5-30.5c0,0,0,0,0,0
				C302.4,89.6,316.1,75.9,332.9,75.9z"/>
			<rect x="320.6" y="116.6" class="st0" width="23.9" height="2.2"/>
			<path class="st0" d="M318,117.7l5.8,4v-7.9L318,117.7z"/>
			<path class="st0" d="M347.1,117.7l-5.8-4v7.9L347.1,117.7z"/>
			<path class="st15" d="M365.3,116.7c0,0-0.9-7.4-0.3-9.2s11.2-11.8,7-18.8c-4.3-7-18.4-7.5-22.3-0.9s-1,8.6-1.8,10.2
				c-1,2.1-1.3,2.7-1.9,4.2c-0.5,1.4,0.5,1.5,1.2,1.6c0.8,0.1,1.1,0.1,1.2,0.8c0.3,1.8,0.3,3,0.5,4c0.5,2.4,4.5,1.9,5.6,1.9
				c2.4,0,1.8,6.3,1.8,6.3L365.3,116.7z"/>
			<path class="st30" d="M361.3,82c12.3,0.1,14.9,10.3,11.1,15.8c-5.6,8.2-7.5,11.1-7.5,11.1l0,0c-1.6,0-2.9-1.1-3.3-2.6l-2.9-10.9
				L361.3,82z"/>
			<path class="st31" d="M351.1,97.1c0,0.7-0.4,1.2-0.9,1.2c-0.5,0-0.9-0.5-0.9-1.2s0.4-1.2,0.9-1.2
				C350.7,95.9,351.1,96.4,351.1,97.1z"/>
			<path class="st30" d="M349.3,93.8h1.8c0.1,0,0.2,0.1,0.2,0.2v0c0,0.1-0.1,0.2-0.2,0.2h-1.8c-0.1,0-0.2-0.1-0.2-0.2v0
				C349.1,93.8,349.2,93.8,349.3,93.8z"/>
			<path class="st30" d="M366.9,82.2c-5.2-4.5-9-2.9-11.5-0.1c-2.4,2.8-3.4,1.4-7,1.7c-2.8,0.3-3.8,2.8-2.7,5.4c0.9,2.1,3,3.9,7,3
				c4-0.9,4.6,3,10.4,1.3C368.8,91.8,370.3,85.2,366.9,82.2z"/>
			<path class="st15" d="M363.1,99.8c-0.2,1.5-1.3,2.6-2.4,2.4c-1.1-0.2-1.9-1.5-1.7-3c0.2-1.5,1.3-2.6,2.4-2.4
				C362.5,96.9,363.3,98.3,363.1,99.8z"/>
			<path class="st30" d="M353.9,85.6c7.5,0,7.9,10,5.6,13.2c-1.2,1.6-1.4,1.4-1.4-1.2c0-3.2-1.7-8.7-5.3-8.7S353.9,85.6,353.9,85.6z
				"/>
			<path class="st32" d="M365.1,114.2l-8.8,1.3l-0.7,5.1l9.7-4.2L365.1,114.2z"/>
			<path class="st33" d="M365.3,116.3L365.3,116.3l-9.7,4.2L348,135h23.7v-0.2C371.6,128.1,369.4,121.6,365.3,116.3z"/>
			<path class="st15" d="M299.7,116.7c0,0,0.9-7.4,0.3-9.2s-11.2-11.8-7-18.8c4.3-7,18.4-7.5,22.3-0.9s1,8.6,1.8,10.2
				c1,2.1,1.3,2.7,1.9,4.2c0.5,1.4-0.5,1.5-1.2,1.6c-0.8,0.1-1.1,0.1-1.2,0.8c-0.3,1.8-0.3,3-0.5,4c-0.5,2.4-4.5,1.9-5.6,1.9
				c-2.4,0-1.8,6.3-1.8,6.3L299.7,116.7z"/>
			<path class="st34" d="M303.7,82c-12.3,0.1-13.6,9.9-10.4,16.3c4.5,8.9,6.8,10.7,6.8,10.7l0,0c1.6,0,2.9-1.1,3.3-2.6l2.9-10.9
				L303.7,82z"/>
			<path class="st31" d="M313.8,97.1c0,0.7,0.4,1.2,0.9,1.2c0.5,0,0.9-0.5,0.9-1.2s-0.4-1.2-0.9-1.2
				C314.2,95.9,313.8,96.4,313.8,97.1z"/>
			<path class="st30" d="M315.6,94.2h-1.8c-0.1,0-0.2-0.1-0.2-0.2v0c0-0.1,0.1-0.2,0.2-0.2h1.8c0.1,0,0.2,0.1,0.2,0.2v0
				C315.8,94.1,315.8,94.2,315.6,94.2z"/>
			<path class="st15" d="M301.9,99.8c0.2,1.5,1.3,2.6,2.4,2.4c1.1-0.2,1.9-1.5,1.7-3s-1.3-2.6-2.4-2.4
				C302.4,96.9,301.7,98.3,301.9,99.8z"/>
			<path class="st34" d="M309.9,87.1c-6.1,0-6.5,8.2-4.6,10.9c1,1.3,1.1,1.2,1.1-1c0-2.6,1.4-7.2,4.4-7.2
				C313.8,89.7,309.9,87.1,309.9,87.1z"/>
			<path class="st15" d="M299.9,114.2l8.8,1.3l0.7,5.1l-9.7-4.2L299.9,114.2z"/>
			<path class="st35" d="M299.7,116.3L299.7,116.3l9.7,4.2L317,135h-23.7v-0.2C293.4,128.1,295.6,121.6,299.7,116.3z"/>
			<path class="st34" d="M316.7,90.6c-5.9-0.9-10.3,6.3-10.3,6.3S296,82,303.7,82C314.6,82,316.7,90.6,316.7,90.6z"/>
			<path class="st34" d="M318,89.2c1.8-6.9-6.7-7.8-10.8-4.9s-7,1.6-8.6,4.9c-1.7,3.3,5.1,7,10.8,5.3
				C315.1,92.8,317.5,91.2,318,89.2z"/>
		</g>
		<g transform="translate(66 411.239)">
			<g>
				<defs>
					<rect id="SVGID_3_" x="-4.7" y="-100.4" width="304.7" height="337.8"/>
				</defs>
				<clipPath id="SVGID_4_">
					<use xlink:href="#SVGID_3_"  style="overflow:visible;"/>
				</clipPath>
				<g transform="translate(0 -0.139)" class="st36">
					<g transform="translate(-52.781 -59.543)">
						<path class="st2" d="M154.1,212c4.9-1.6,8-6.5,8.1-11.8l0.5-0.2c3.1,8.6,9.1,15.8,17,20.5c-3.6-0.5-7.1,1.5-8.6,4.8
							c-2.2,4.6-0.7,10.3,3.4,12.8c4.1,2.5,9.3,0.8,11.5-3.7c1.8-3.6,1.3-8-1.3-11.1l0.2-0.3c7.1,2.7,14.9,3,22.2,0.7l1.9,5.7
							c-4,3.6-5.4,9.2-3.7,14.2c2.2,6.5,8.7,9.8,14.5,7.4s8.8-9.6,6.6-16.1c-1.8-5.3-6.4-8.4-11.2-8.1l-1.9-5.8
							c5.2-2.9,9.6-6.9,13-11.8c1,2.4,2.8,4.4,5.1,5.6c5.3,2.7,11.6,0.1,14-5.8s0.1-12.9-5.2-15.6c-2.2-1.1-4.7-1.4-7.1-0.7
							c1.3-6.8,1-13.7-0.8-20.4c1-0.1,1.9-0.5,2.8-1c4.2-2.4,5.8-8,3.7-12.7c-2.1-4.6-7.3-6.4-11.4-4.1c-1,0.6-2,1.4-2.7,2.4
							c-4.7-6-11.1-10.4-18.3-12.6c4.6-0.6,8.5-4.2,9.7-9.5c1.5-6.7-2.2-13.5-8.3-15.1c-6-1.6-12.1,2.5-13.6,9.2
							c-1.2,5.4,1,10.9,5.1,13.7l-0.1,0.4c-5.2-0.4-10.4,0.5-15.3,2.5c-0.9,0.4-1.8,0.8-2.7,1.3c-0.2-1.5-0.7-2.9-1.4-4.2
							c-3-5.5-9.6-7.3-14.5-3.9c-5,3.4-6.6,10.6-3.6,16.1c1.2,2.2,3,3.9,5.3,4.9c-6.4,9.8-8.7,21.7-6.4,33.2l-0.4,0.1
							c-2.7-4.4-7.7-6.7-12.6-5.1c-6,1.9-9.4,8.9-7.7,15.5S148.1,213.9,154.1,212z"/>
						<path class="st2" d="M100.3,28.3c-5-0.4-9.5,2.9-11.3,7.9l-12.6-1c-0.3-6.1-2.6-12-6.4-16.8l8.5-8.2c3.1,2.2,7.3,1.8,10-0.9
							c3.5-3.6,3.9-9.2,0.9-13.2c-2.6-3.5-7.5-4.3-11-1.7c-0.3,0.2-0.6,0.5-0.9,0.8C74.6-2,73.8,2.2,75.3,6l-9,8.6
							c-3.4-2.8-7.5-4.7-11.8-5.3V-9c4.6-1.6,7.9-6.3,7.9-11.9c0-6.9-5-12.5-11.2-12.5s-11.2,5.6-11.2,12.5c0,5.6,3.3,10.3,7.9,11.9
							V9.3C43.2,10,39,11.9,35.5,15l-4.7-5.3C33,5.2,32.2-0.2,28.9-4C25.4-8.1,19.2-8.6,15-5.1C14.7-4.7,14.3-4.4,14-4
							C9.9,0.7,9.9,7.8,14,12.5c3.1,3.6,8.3,4.5,12.4,2.1l4.7,5.2C27.6,25,25.7,31,25.8,37.2c0,0.9,0,1.8,0.1,2.7l-5.3,0.7
							c-1.5-3.7-5-6-8.7-5.5c-4.6,0.6-7.9,5.3-7.4,10.4s4.8,8.8,9.4,8.2c3.8-0.5,6.7-3.7,7.3-7.6l5.7-0.8
							c1.6,6.2,5.3,11.6,10.5,15.4l-6.5,10.7c-4.6-1.5-9.7,0.3-12.6,4.9c-3.5,5.7-2.1,13.4,3,17.3c5.1,3.9,12.1,2.4,15.6-3.3
							c2.8-4.6,2.6-10.4-0.5-14.8L43.4,64c2.5,0.9,5.1,1.3,7.7,1.3c2.6,0,5.1-0.4,7.6-1.3l1.2,6.6c-4,2.4-6.3,7.4-5.4,12.5
							c1.1,6.4,6.6,10.5,12.4,9.3s9.5-7.4,8.4-13.7c-0.9-5.2-4.7-8.9-9.2-9.4L64.6,61c6.1-4.4,10.2-11,11.4-18.4l12.5,1
							c1.1,5.2,5.1,9.2,10.1,9.6c6.2,0.5,11.6-4.7,12-11.5C111.1,34.8,106.5,28.8,100.3,28.3z"/>
						<path class="st2" d="M52,325.5c3.1-4.3,3.4-10.1,0.7-14.8l8-10.8c4.7,3.2,10.4,4.7,16.1,4l1.1,12.5c-3.5,1.8-5.6,5.6-5.1,9.5
							c0.4,5.2,4.6,8.9,9.2,8.4c4.7-0.5,8.1-5.1,7.6-10.2c-0.2-3.9-2.9-7.3-6.7-8.3l-1.1-13.1c4.2-1.5,7.9-4.1,10.7-7.6l13.5,10.6
							c-1.6,5.1,0.1,10.6,4.2,14c5.1,4,12.1,2.7,15.7-2.9c3.6-5.6,2.4-13.4-2.6-17.4c-3.9-3.2-9.5-3.1-13.3,0.2l-13.5-10.6
							c2.1-4.5,3.1-9.4,2.9-14.4l6.6-1.2c2,4.5,6.5,7.1,11.2,6.3c5.8-1.1,9.6-7.1,8.7-13.5c-1-6.4-6.4-10.7-12.2-9.6
							c-4.7,0.9-8.1,5-8.7,10l-6.6,1.2c-1.5-5.9-4.9-11.1-9.6-14.8c-0.7-0.5-1.4-1-2.1-1.5l2.6-5.2c3.8,0.7,7.5-1.2,9.1-4.7
							c2.2-4.5,0.7-10.2-3.4-12.7c-4.1-2.5-9.2-0.8-11.5,3.7c-1.8,3.6-1.2,7.9,1.3,11l-2.8,5.6c-5.6-2.1-11.9-1.9-17.4,0.5
							l-4.1-12.1c4-3.6,5.4-9.2,3.6-14.2c-2.2-6.4-8.6-9.7-14.5-7.3s-8.8,9.6-6.6,16c1.8,5.2,6.4,8.4,11.2,8.1l4.4,13.2
							c-2.1,1.8-3.9,3.9-5.4,6.2c-1.5,2.4-2.7,4.9-3.5,7.6l-5.5-2.8c0.6-5-1.8-10-6.1-12.1c-5.3-2.7-11.6-0.1-14,5.8
							c-2.4,5.9-0.1,12.8,5.2,15.5c4.2,2.1,9.4,0.9,12.3-2.8l7,3.5c-0.5,7.6,2,15.1,6.9,21l-8,10.7c-4.6-2-10-0.5-12.9,3.6
							c-3.9,5.3-3.3,13.2,1.5,17.5C41,331.6,48.1,330.8,52,325.5z"/>
						<path class="st2" d="M360.7,258.7c-3.1-0.1-5.9,1.8-6.8,4.7l-0.3,0c-0.2-5.6-2.2-11-5.7-15.4c1.8,1.1,4.2,0.8,5.7-0.7
							c2.1-2.2,2.3-5.5,0.5-7.9c-1.5-2.1-4.5-2.6-6.6-1c-0.2,0.1-0.4,0.3-0.5,0.5c-1.7,1.7-2.2,4.3-1.3,6.5l-0.2,0.1
							c-3.4-3.1-7.7-5.1-12.3-5.5v-3.7c2.9-1.1,4.8-4,4.7-7.2c0-4.1-3-7.5-6.8-7.5s-6.8,3.4-6.8,7.5c-0.1,3.1,1.8,6,4.7,7.2v3.7
							c-3.4,0.4-6.7,1.6-9.5,3.6c-0.1-1.6-0.8-3.1-1.8-4.3c-2.1-2.5-5.9-2.8-8.3-0.6c-0.2,0.2-0.4,0.4-0.6,0.6
							c-2.5,2.9-2.5,7.1,0,10c1,1.1,2.4,1.8,3.8,2c-2,3.6-3.2,7.5-3.4,11.6c-0.6-0.1-1.2-0.2-1.7-0.1c-2.8,0.4-4.8,3.2-4.4,6.3
							c0.3,3.1,2.9,5.3,5.6,4.9c0.7-0.1,1.4-0.3,1.9-0.7c1.5,4.4,4.3,8.4,7.9,11.3c-2.8-0.7-5.8,0.5-7.2,3.1
							c-2.1,3.4-1.3,7.9,1.8,10.4c2.8,2.1,6.8,1.5,8.9-1.3c0.2-0.2,0.3-0.5,0.5-0.7c1.7-2.8,1.5-6.2-0.3-8.9l0.1-0.2
							c2.8,1.4,5.9,2.1,9,2.1c0.6,0,1.2,0,1.7-0.1c-0.2,0.9-0.2,1.8,0,2.7c0.7,3.8,4,6.3,7.4,5.6c3.4-0.7,5.7-4.4,5-8.2
							c-0.2-1.5-1-2.9-2.1-4c5.5-4.1,9.1-10.3,9.8-17.2l0.2,0c0.5,3.1,3,5.4,6.1,5.8c3.7,0.3,7-2.8,7.2-6.9
							C367.2,262.6,364.4,259,360.7,258.7z"/>
						<path class="st2" d="M264.4,138.7c4.9-1.6,8-6.5,8.1-11.8l0.5-0.2c3.1,8.6,9.1,15.8,17,20.5c-3.6-0.5-7.1,1.5-8.6,4.8
							c-2.2,4.6-0.7,10.3,3.4,12.8c4.1,2.5,9.3,0.8,11.5-3.7c1.8-3.6,1.3-8-1.3-11.1l0.2-0.3c7.1,2.7,14.9,3,22.2,0.7l1.9,5.7
							c-4,3.6-5.4,9.2-3.7,14.2c2.2,6.5,8.7,9.8,14.5,7.4s8.8-9.6,6.6-16.1c-1.8-5.3-6.4-8.4-11.2-8.1l-1.9-5.8
							c5.2-2.9,9.6-6.9,13-11.8c1,2.4,2.8,4.4,5.1,5.6c5.3,2.7,11.6,0.1,14-5.8s0.1-12.9-5.2-15.6c-2.2-1.1-4.7-1.4-7.1-0.7
							c1.3-6.8,1-13.7-0.8-20.4c1-0.1,1.9-0.5,2.8-1c4.2-2.4,5.8-8,3.7-12.7s-7.3-6.4-11.4-4.1c-1,0.6-2,1.4-2.7,2.4
							c-4.7-6-11.1-10.4-18.3-12.6c4.6-0.6,8.5-4.2,9.7-9.5c1.5-6.7-2.2-13.5-8.3-15.1c-6-1.6-12.1,2.5-13.6,9.2
							c-1.2,5.4,1,10.9,5.1,13.7l-0.1,0.4c-5.2-0.4-10.4,0.5-15.3,2.5c-0.9,0.4-1.8,0.8-2.7,1.3c-0.2-1.5-0.7-2.9-1.4-4.2
							c-3-5.5-9.6-7.3-14.5-3.9c-5,3.4-6.6,10.6-3.6,16.1c1.2,2.2,3,3.9,5.3,4.9c-6.4,9.8-8.7,21.7-6.4,33.2l-0.4,0.1
							c-2.7-4.4-7.7-6.7-12.6-5.1c-6,1.9-9.4,8.9-7.7,15.5C252.2,136.9,258.4,140.7,264.4,138.7z"/>
					</g>
				</g>
			</g>
		</g>
		<g transform="translate(0 319)">
			<path class="st33" d="M204.9,71.6l-16.9,7c-5.3,2.2-9.4,6.7-11.1,12.2l-6.1,20.3h45.7V74.5L204.9,71.6z"/>
			<rect x="209.6" y="60.7" class="st37" width="13.8" height="13.8"/>
			<circle class="st15" cx="237.6" cy="40.5" r="6.2"/>
			<path class="st15" d="M216.5,9.2L216.5,9.2c-11.7,0-21.1,11.4-21.1,25.4v6.5c0,10.3,2.6,23.3,21.1,23.3s21.1-12.9,21.1-23.3v-6.5
				C237.6,20.6,228.2,9.2,216.5,9.2L216.5,9.2z"/>
			<path class="st31" d="M209.4,35.2c0,1.7-1,3.2-2.3,3.2c-1.3,0-2.3-1.4-2.3-3.2s1-3.2,2.3-3.2S209.4,33.5,209.4,35.2z"/>
			<ellipse class="st31" cx="226.7" cy="35.2" rx="2.3" ry="3.2"/>
			<path class="st30" d="M224.3,26.6h4.8c0.3,0,0.5,0.2,0.5,0.5v0.2c0,0.3-0.2,0.5-0.5,0.5h-4.8c-0.3,0-0.5-0.2-0.5-0.5v-0.2
				C223.8,26.8,224,26.6,224.3,26.6z"/>
			<path class="st30" d="M204.7,26.6h4.8c0.3,0,0.5,0.2,0.5,0.5v0.2c0,0.3-0.2,0.5-0.5,0.5h-4.8c-0.3,0-0.5-0.2-0.5-0.5v-0.2
				C204.3,26.8,204.5,26.6,204.7,26.6z"/>
			<path class="st30" d="M203.7,10.8c5.9,12.7,14.3,12.8,21.1,9.7s8,5.6,13.7,5s6.6-4.1,7.7-8.6c1.1-4.5,0.1-11.2-7.9-12.8
				c-8.1-1.6-6.1-9.4-18.1-11C208-8.5,199.8,2.5,203.7,10.8z"/>
			<path class="st30" d="M208.6,4.9c-19,0-20.1,25.4-14.1,33.5c3,4,3.4,3.6,3.4-3.2c0-8,4.3-22.1,13.5-22.1
				C220.7,13.1,208.6,4.9,208.6,4.9z"/>
			<path class="st30" d="M226.1,4.9c19,0,20.1,25.4,14.1,33.5c-3,4-3.4,3.6-3.4-3.2c0-8-4.3-22.1-13.5-22.1
				C214.1,13.1,226.1,4.9,226.1,4.9z"/>
			<circle class="st15" cx="197.6" cy="40.5" r="6.2"/>
			<path class="st38" d="M214.9,31.1c2.6,6.5-0.6,12.1-1.4,13.8c-0.9,1.7,1.1,1.8,3.6,1.8"/>
			<path class="st32" d="M209.6,68.6l6.9,5.9l-15,7.6l3.3-10.5L209.6,68.6z"/>
			<path class="st33" d="M228.2,71.6l16.9,7c5.3,2.2,9.4,6.7,11.1,12.2l6.1,20.3h-45.7V74.5L228.2,71.6z"/>
			<path class="st32" d="M223.4,68.6l-6.9,5.9l15,7.6l-3.3-10.5L223.4,68.6z"/>
			<rect x="187.7" y="108.5" class="st33" width="58.8" height="54.2"/>
			<rect x="174.9" y="111.1" class="st15" width="12.8" height="51.6"/>
			<rect x="246.5" y="111.1" class="st15" width="12.8" height="51.6"/>
			<path class="st39" d="M203.6,39.9l-8.2,1.9c0,0,1.5,12.2,7.1,16.8c2.7,2.1,5.8,3.8,9.1,4.9c3.2,1.2,6.8,1.2,10,0
				c3.3-1.1,6.4-2.8,9.1-5c5.5-4.7,7-16.9,7-16.9l-8.2-1.8C220.9,37.9,212.1,37.9,203.6,39.9z"/>
			<g class="st40">
				<path class="st41" d="M230.6,43.1l-1.9-0.5c-8-1.9-16.4-1.9-24.4,0.1l-1.7,0.4C212,42.8,221.3,42.8,230.6,43.1z"/>
				<path class="st41" d="M230.6,49.6l-1.9-0.5c-8-1.9-16.4-1.9-24.4,0.1l-1.7,0.4C212,49.3,221.3,49.3,230.6,49.6z"/>
				<path class="st41" d="M202.7,53.1l1.9,0.5c8,1.9,16.4,1.9,24.4-0.1l1.7-0.4C221.3,53.4,212,53.4,202.7,53.1z"/>
				<path class="st41" d="M207.4,58.4l1.3,0.5c5.2,1.9,11,1.9,16.2-0.1l1.1-0.4C219.7,58.7,213.5,58.7,207.4,58.4z"/>
			</g>
		</g>
		<g transform="translate(50 143)">
			<text transform="matrix(1 0 0 1 58.7935 147.656)" class="st3 st13 st14">AVOID CONTACT</text>
			<g transform="translate(-0.358)">
				<path class="st8" d="M82.9,75.9c16.8,0,30.5,13.7,30.5,30.5s-13.7,30.5-30.5,30.5s-30.5-13.7-30.5-30.5S66.1,75.9,82.9,75.9
					C82.9,75.9,82.9,75.9,82.9,75.9z"/>
				<path class="st42" d="M92.5,95.4C92.5,95.4,92.5,95.4,92.5,95.4v-3.3c0-6.9-4.3-12.4-9.5-12.4l0,0c-5.3,0-9.5,5.6-9.5,12.4v3.2
					c0,0,0,0,0,0.1H92.5z"/>
				<path class="st43" d="M78.2,108.8l-6.9,2.9c-2.2,0.9-3.8,2.7-4.5,5l-0.1,4.9h16.3V110L78.2,108.8z"/>
				<rect x="80.1" y="104.3" class="st44" width="5.6" height="5.6"/>
				<path class="st15" d="M94.1,96.1c0,1.4-1.1,2.5-2.5,2.5c-1.4,0-2.5-1.1-2.5-2.5s1.1-2.5,2.5-2.5C93,93.5,94.1,94.7,94.1,96.1z"
					/>
				<path class="st15" d="M82.9,83.3L82.9,83.3c-4.8,0-8.7,4.6-8.7,10.4v2.7c0,4.2,1.1,9.5,8.7,9.5s8.6-5.3,8.6-9.5v-2.7
					C91.6,87.9,87.7,83.3,82.9,83.3L82.9,83.3z"/>
				<path class="st31" d="M80,93.9c0,0.7-0.4,1.3-0.9,1.3s-0.9-0.6-0.9-1.3s0.4-1.3,0.9-1.3S80,93.2,80,93.9z"/>
				<path class="st31" d="M88,93.9c0,0.7-0.4,1.3-0.9,1.3c-0.5,0-0.9-0.6-0.9-1.3s0.4-1.3,0.9-1.3C87.6,92.6,88,93.2,88,93.9z"/>
				<path class="st30" d="M86.1,90.4h1.9c0.1,0,0.2,0.1,0.2,0.2v0c0,0.1-0.1,0.2-0.2,0.2h-1.9c-0.1,0-0.2-0.1-0.2-0.2v0
					C85.9,90.5,86,90.4,86.1,90.4z"/>
				<path class="st30" d="M78.1,90.4h1.9c0.1,0,0.2,0.1,0.2,0.2v0c0,0.1-0.1,0.2-0.2,0.2h-1.9c-0.1,0-0.2-0.1-0.2-0.2v0
					C77.9,90.5,78,90.4,78.1,90.4z"/>
				<path class="st15" d="M77.7,96.1c0,1.4-1.1,2.5-2.5,2.5c-1.4,0-2.5-1.1-2.5-2.5s1.1-2.5,2.5-2.5C76.6,93.5,77.7,94.7,77.7,96.1z
					"/>
				<path class="st38" d="M82.3,92.2c1.1,2.6-0.2,4.9-0.6,5.6c-0.4,0.7,0.5,0.7,1.5,0.7"/>
				<path class="st32" d="M80.1,107.6l2.8,2.4l-6.1,3.1l1.4-4.3L80.1,107.6z"/>
				<path class="st43" d="M87.7,108.8l6.9,2.9c2.2,0.9,3.8,2.7,4.5,5l0.1,4.9H82.9V110L87.7,108.8z"/>
				<path class="st32" d="M85.7,107.6l-2.8,2.4l6.1,3.1l-1.4-4.3L85.7,107.6z"/>
				<path class="st44" d="M80.7,102.2c0.9,1.4,2.7,1.8,4.1,0.9c0.3-0.2,0.6-0.5,0.9-0.9H80.7z"/>
				<path class="st42" d="M94.5,85.4c0,2.5-4.2,4.5-9.4,4.5s-9.4-2-9.4-4.5s4.2-4.5,9.4-4.5S94.5,82.9,94.5,85.4z"/>
				<path class="st45" d="M54.2,121.5l-6.9,2.9c-2.2,0.9-3.8,2.7-4.5,5l-0.1,4.9h16.3v-8.8L54.2,121.5z"/>
				<path class="st44" d="M61.7,117.1h-5.6v5.6l2.8,2.7l2.8-2.7L61.7,117.1z"/>
				<path class="st15" d="M70.1,108.8c0,1.4-1.1,2.5-2.5,2.5c-1.4,0-2.5-1.1-2.5-2.5c0-1.4,1.1-2.5,2.5-2.5
					C69,106.3,70.1,107.4,70.1,108.8z"/>
				<path class="st15" d="M58.9,96L58.9,96c-4.8,0-8.7,4.6-8.7,10.4v2.7c0,4.2,1.1,9.5,8.7,9.5c7.6,0,8.7-5.3,8.7-9.5v-2.7
					C67.6,100.7,63.7,96,58.9,96L58.9,96z"/>
				<path class="st31" d="M56,106.7c0,0.7-0.4,1.3-0.9,1.3s-0.9-0.6-0.9-1.3c0-0.7,0.4-1.3,0.9-1.3S56,106,56,106.7z"/>
				<path class="st31" d="M64,106.7c0,0.7-0.4,1.3-0.9,1.3s-0.9-0.6-0.9-1.3c0-0.7,0.4-1.3,0.9-1.3S64,106,64,106.7z"/>
				<path class="st30" d="M62.1,103.1h1.9c0.1,0,0.2,0.1,0.2,0.2v0c0,0.1-0.1,0.2-0.2,0.2h-1.9c-0.1,0-0.2-0.1-0.2-0.2v0
					C61.9,103.2,62,103.1,62.1,103.1z"/>
				<path class="st30" d="M54.1,103.1h1.9c0.1,0,0.2,0.1,0.2,0.2v0c0,0.1-0.1,0.2-0.2,0.2h-1.9c-0.1,0-0.2-0.1-0.2-0.2v0
					C53.9,103.2,54,103.1,54.1,103.1z"/>
				<path class="st46" d="M62.9,94.3c7.8,0,8.2,10.4,5.8,13.7c-1.2,1.6-1.4,1.5-1.4-1.3c0-3.3-1.1-8.6-6.1-10.3
					C57.6,95.1,62.9,94.3,62.9,94.3z"/>
				<path class="st15" d="M53.7,108.8c0,1.4-1.1,2.5-2.5,2.5c-1.4,0-2.5-1.1-2.5-2.5c0-1.4,1.1-2.5,2.5-2.5
					C52.6,106.3,53.7,107.4,53.7,108.8z"/>
				<path class="st38" d="M58.3,105c1.1,2.6-0.2,4.9-0.6,5.6c-0.4,0.7,0.5,0.7,1.5,0.7"/>
				<path class="st32" d="M56.1,120.3l2.8,5.1l-6.1,0.4l1.4-4.3L56.1,120.3z"/>
				<path class="st45" d="M63.7,121.5l6.9,2.9c2.2,0.9,3.8,2.7,4.5,5l0.1,4.9H58.9v-8.8L63.7,121.5z"/>
				<path class="st32" d="M61.7,120.3l-2.8,5.1l6.1,0.4l-1.4-4.3L61.7,120.3z"/>
				<path class="st46" d="M55.7,94.3c-7.8,0-8.2,10.4-5.8,13.7c1.2,1.6,1.4,1.5,1.4-1.3c0-3.3,0.5-9.3,5.9-10.4
					C60.9,95.4,55.7,94.3,55.7,94.3z"/>
				<path class="st46" d="M64.3,92.4c-1.4-1.1-3.1-1.7-4.9-1.6c-0.8-0.3-1.6-0.6-2.5-0.7c-2.9-0.4-5.4,0.4-6.1,1.8
					c-2.5,0.6-4.3,1.8-4.5,3.4c-0.4,2.8,3.7,5.7,9.1,6.4c4.6,0.7,8.7-0.4,10.1-2.4c0.7,0,1.3-0.4,1.8-0.9C68.3,97,67,94.3,64.3,92.4
					z"/>
				<path class="st44" d="M56.1,114.5c0.9,1.4,2.7,1.8,4.1,0.9c0.4-0.2,0.6-0.5,0.9-0.9H56.1z"/>
				<path class="st33" d="M102.1,121.6l-6.9,2.9c-2.2,0.9-3.8,2.7-4.5,5l-0.1,4.9h16.3v-11.6L102.1,121.6z"/>
				<rect x="104.1" y="117.1" class="st44" width="5.6" height="5.6"/>
				<circle class="st15" cx="115.6" cy="108.9" r="2.5"/>
				<path class="st15" d="M106.9,96.1L106.9,96.1c-4.8,0-8.7,4.6-8.7,10.4v2.7c0,4.2,1.1,9.5,8.7,9.5s8.7-5.3,8.7-9.5v-2.7
					C115.6,100.7,111.7,96.1,106.9,96.1z"/>
				<path class="st31" d="M104,106.7c0,0.7-0.4,1.3-0.9,1.3s-0.9-0.6-0.9-1.3s0.4-1.3,0.9-1.3C103.6,105.4,104,106,104,106.7z"/>
				<path class="st31" d="M112,106.7c0,0.7-0.4,1.3-0.9,1.3c-0.5,0-0.9-0.6-0.9-1.3s0.4-1.3,0.9-1.3C111.6,105.4,112,106,112,106.7z
					"/>
				<path class="st30" d="M110.1,103.2h1.9c0.1,0,0.2,0.1,0.2,0.2v0c0,0.1-0.1,0.2-0.2,0.2h-1.9c-0.1,0-0.2-0.1-0.2-0.2v0
					C109.9,103.3,110,103.2,110.1,103.2z"/>
				<path class="st30" d="M102.1,103.2h1.9c0.1,0,0.2,0.1,0.2,0.2v0c0,0.1-0.1,0.2-0.2,0.2h-1.9c-0.1,0-0.2-0.1-0.2-0.2v0
					C101.9,103.3,102,103.2,102.1,103.2z"/>
				<path class="st30" d="M101.7,96.7c2.4,5.2,5.8,5.3,8.6,4c2.8-1.3,3.3,2.3,5.6,2.1s2.7-1.7,3.1-3.5c0.4-1.8,0.1-4.6-3.2-5.3
					c-3.3-0.6-2.5-3.8-7.4-4.5S100.1,93.3,101.7,96.7z"/>
				<path class="st30" d="M103.7,94.3c-7.8,0-8.2,10.4-5.8,13.7c1.2,1.6,1.4,1.5,1.4-1.3c0-3.3,1.8-9.1,5.5-9.1
					C108.6,97.7,103.7,94.3,103.7,94.3z"/>
				<path class="st30" d="M110.9,94.3c7.8,0,8.2,10.4,5.8,13.7c-1.2,1.6-1.4,1.5-1.4-1.3c0-3.3-1.8-9.1-5.5-9.1
					S110.9,94.3,110.9,94.3z"/>
				<circle class="st15" cx="99.2" cy="108.9" r="2.5"/>
				<path class="st38" d="M106.3,105c1.1,2.6-0.2,4.9-0.6,5.6c-0.4,0.7,0.5,0.7,1.5,0.7"/>
				<path class="st32" d="M104.1,120.4l2.8,2.4l-6.1,3.1l1.4-4.3L104.1,120.4z"/>
				<path class="st33" d="M111.7,121.6l6.9,2.9c2.2,0.9,3.8,2.7,4.5,5l0.1,4.9h-16.3v-11.6L111.7,121.6z"/>
				<path class="st32" d="M109.7,120.4l-2.8,2.4l6.1,3.1l-1.4-4.3L109.7,120.4z"/>
				<path class="st44" d="M104.7,115c0.9,1.4,2.7,1.8,4.1,0.9c0.4-0.2,0.6-0.5,0.9-0.9H104.7z"/>
			</g>
			
				<rect x="72.5" y="120.7" transform="matrix(0.7071 -0.7071 0.7071 0.7071 -62.0474 94.2883)" class="st18" width="20.5" height="2.8"/>
			
				<rect x="81.4" y="111.8" transform="matrix(0.7071 -0.7071 0.7071 0.7071 -62.0466 94.2832)" class="st18" width="2.8" height="20.5"/>
		</g>
	</g>
</g>
</svg>
