<?xml version="1.0" encoding="utf-8"?>
<!-- Generator: Adobe Illustrator 24.1.2, SVG Export Plug-In . SVG Version: 6.00 Build 0)  -->
<svg version="1.1" id="Capa_1" xmlns="http://www.w3.org/2000/svg" xmlns:xlink="http://www.w3.org/1999/xlink" x="0px" y="0px"
	 viewBox="0 0 28.9 28.9" style="enable-background:new 0 0 28.9 28.9;" xml:space="preserve">
<style type="text/css">
	.st0{fill:#FFFFFF;}
</style>
<g>
	<path class="st0" d="M28.3,25.5l-6.1-6.1c1.5-2.1,2.3-4.5,2.3-7.1c0-3.3-1.3-6.4-3.6-8.7C18.6,1.3,15.5,0,12.3,0
		C9,0,5.9,1.3,3.6,3.6C1.3,5.9,0,9,0,12.3s1.3,6.4,3.6,8.7c2.3,2.3,5.4,3.6,8.7,3.6c2.6,0,5.1-0.8,7.1-2.3l6.1,6.1
		c0.4,0.4,0.9,0.6,1.4,0.6c0.5,0,1-0.2,1.4-0.6C29.1,27.6,29.1,26.3,28.3,25.5z M6.4,18.1C4.9,16.5,4,14.5,4,12.3S4.9,8,6.4,6.4
		C8,4.9,10.1,4,12.3,4s4.3,0.9,5.8,2.4c1.6,1.6,2.4,3.6,2.4,5.8s-0.9,4.3-2.4,5.8c-1.6,1.6-3.6,2.4-5.8,2.4S8,19.7,6.4,18.1z"/>
</g>
</svg>
